<?xml version="1.0" encoding="utf-8" standalone="no"?>
<!DOCTYPE svg PUBLIC "-//W3C//DTD SVG 1.1//EN"
  "http://www.w3.org/Graphics/SVG/1.1/DTD/svg11.dtd">
<svg xmlns:xlink="http://www.w3.org/1999/xlink" width="460.8pt" height="345.6pt" viewBox="0 0 460.8 345.6" xmlns="http://www.w3.org/2000/svg" version="1.1">
 <metadata>
  <rdf:RDF xmlns:dc="http://purl.org/dc/elements/1.1/" xmlns:cc="http://creativecommons.org/ns#" xmlns:rdf="http://www.w3.org/1999/02/22-rdf-syntax-ns#">
   <cc:Work>
    <dc:type rdf:resource="http://purl.org/dc/dcmitype/StillImage"/>
    <dc:date>2023-03-07T04:18:42.919340</dc:date>
    <dc:format>image/svg+xml</dc:format>
    <dc:creator>
     <cc:Agent>
      <dc:title>Matplotlib v3.7.1, https://matplotlib.org/</dc:title>
     </cc:Agent>
    </dc:creator>
   </cc:Work>
  </rdf:RDF>
 </metadata>
 <defs>
  <style type="text/css">*{stroke-linejoin: round; stroke-linecap: butt}</style>
 </defs>
 <g id="figure_1">
  <g id="patch_1">
   <path d="M 0 345.6 
L 460.8 345.6 
L 460.8 0 
L 0 0 
z
" style="fill: #ffffff"/>
  </g>
  <g id="axes_1">
   <g id="patch_2">
    <path d="M 57.6 307.584 
L 414.72 307.584 
L 414.72 41.472 
L 57.6 41.472 
z
" style="fill: #ffffff"/>
   </g>
   <g id="matplotlib.axis_1">
    <g id="xtick_1">
     <g id="line2d_1">
      <defs>
       <path id="m2381a61039" d="M 0 0 
L 0 3.5 
" style="stroke: #000000; stroke-width: 0.8"/>
      </defs>
      <g>
       <use xlink:href="#m2381a61039" x="65.289187" y="307.584" style="stroke: #000000; stroke-width: 0.8"/>
      </g>
     </g>
     <g id="text_1">
      <!-- 0 -->
      <g transform="translate(62.107937 322.182437) scale(0.1 -0.1)">
       <defs>
        <path id="DejaVuSans-30" d="M 2034 4250 
Q 1547 4250 1301 3770 
Q 1056 3291 1056 2328 
Q 1056 1369 1301 889 
Q 1547 409 2034 409 
Q 2525 409 2770 889 
Q 3016 1369 3016 2328 
Q 3016 3291 2770 3770 
Q 2525 4250 2034 4250 
z
M 2034 4750 
Q 2819 4750 3233 4129 
Q 3647 3509 3647 2328 
Q 3647 1150 3233 529 
Q 2819 -91 2034 -91 
Q 1250 -91 836 529 
Q 422 1150 422 2328 
Q 422 3509 836 4129 
Q 1250 4750 2034 4750 
z
" transform="scale(0.015625)"/>
       </defs>
       <use xlink:href="#DejaVuSans-30"/>
      </g>
     </g>
    </g>
    <g id="xtick_2">
     <g id="line2d_2">
      <g>
       <use xlink:href="#m2381a61039" x="108.00689" y="307.584" style="stroke: #000000; stroke-width: 0.8"/>
      </g>
     </g>
     <g id="text_2">
      <!-- 500 -->
      <g transform="translate(98.46314 322.182437) scale(0.1 -0.1)">
       <defs>
        <path id="DejaVuSans-35" d="M 691 4666 
L 3169 4666 
L 3169 4134 
L 1269 4134 
L 1269 2991 
Q 1406 3038 1543 3061 
Q 1681 3084 1819 3084 
Q 2600 3084 3056 2656 
Q 3513 2228 3513 1497 
Q 3513 744 3044 326 
Q 2575 -91 1722 -91 
Q 1428 -91 1123 -41 
Q 819 9 494 109 
L 494 744 
Q 775 591 1075 516 
Q 1375 441 1709 441 
Q 2250 441 2565 725 
Q 2881 1009 2881 1497 
Q 2881 1984 2565 2268 
Q 2250 2553 1709 2553 
Q 1456 2553 1204 2497 
Q 953 2441 691 2322 
L 691 4666 
z
" transform="scale(0.015625)"/>
       </defs>
       <use xlink:href="#DejaVuSans-35"/>
       <use xlink:href="#DejaVuSans-30" x="63.623047"/>
       <use xlink:href="#DejaVuSans-30" x="127.246094"/>
      </g>
     </g>
    </g>
    <g id="xtick_3">
     <g id="line2d_3">
      <g>
       <use xlink:href="#m2381a61039" x="150.724593" y="307.584" style="stroke: #000000; stroke-width: 0.8"/>
      </g>
     </g>
     <g id="text_3">
      <!-- 1000 -->
      <g transform="translate(137.999593 322.182437) scale(0.1 -0.1)">
       <defs>
        <path id="DejaVuSans-31" d="M 794 531 
L 1825 531 
L 1825 4091 
L 703 3866 
L 703 4441 
L 1819 4666 
L 2450 4666 
L 2450 531 
L 3481 531 
L 3481 0 
L 794 0 
L 794 531 
z
" transform="scale(0.015625)"/>
       </defs>
       <use xlink:href="#DejaVuSans-31"/>
       <use xlink:href="#DejaVuSans-30" x="63.623047"/>
       <use xlink:href="#DejaVuSans-30" x="127.246094"/>
       <use xlink:href="#DejaVuSans-30" x="190.869141"/>
      </g>
     </g>
    </g>
    <g id="xtick_4">
     <g id="line2d_4">
      <g>
       <use xlink:href="#m2381a61039" x="193.442297" y="307.584" style="stroke: #000000; stroke-width: 0.8"/>
      </g>
     </g>
     <g id="text_4">
      <!-- 1500 -->
      <g transform="translate(180.717297 322.182437) scale(0.1 -0.1)">
       <use xlink:href="#DejaVuSans-31"/>
       <use xlink:href="#DejaVuSans-35" x="63.623047"/>
       <use xlink:href="#DejaVuSans-30" x="127.246094"/>
       <use xlink:href="#DejaVuSans-30" x="190.869141"/>
      </g>
     </g>
    </g>
    <g id="xtick_5">
     <g id="line2d_5">
      <g>
       <use xlink:href="#m2381a61039" x="236.16" y="307.584" style="stroke: #000000; stroke-width: 0.8"/>
      </g>
     </g>
     <g id="text_5">
      <!-- 2000 -->
      <g transform="translate(223.435 322.182437) scale(0.1 -0.1)">
       <defs>
        <path id="DejaVuSans-32" d="M 1228 531 
L 3431 531 
L 3431 0 
L 469 0 
L 469 531 
Q 828 903 1448 1529 
Q 2069 2156 2228 2338 
Q 2531 2678 2651 2914 
Q 2772 3150 2772 3378 
Q 2772 3750 2511 3984 
Q 2250 4219 1831 4219 
Q 1534 4219 1204 4116 
Q 875 4013 500 3803 
L 500 4441 
Q 881 4594 1212 4672 
Q 1544 4750 1819 4750 
Q 2544 4750 2975 4387 
Q 3406 4025 3406 3419 
Q 3406 3131 3298 2873 
Q 3191 2616 2906 2266 
Q 2828 2175 2409 1742 
Q 1991 1309 1228 531 
z
" transform="scale(0.015625)"/>
       </defs>
       <use xlink:href="#DejaVuSans-32"/>
       <use xlink:href="#DejaVuSans-30" x="63.623047"/>
       <use xlink:href="#DejaVuSans-30" x="127.246094"/>
       <use xlink:href="#DejaVuSans-30" x="190.869141"/>
      </g>
     </g>
    </g>
    <g id="xtick_6">
     <g id="line2d_6">
      <g>
       <use xlink:href="#m2381a61039" x="278.877703" y="307.584" style="stroke: #000000; stroke-width: 0.8"/>
      </g>
     </g>
     <g id="text_6">
      <!-- 2500 -->
      <g transform="translate(266.152703 322.182437) scale(0.1 -0.1)">
       <use xlink:href="#DejaVuSans-32"/>
       <use xlink:href="#DejaVuSans-35" x="63.623047"/>
       <use xlink:href="#DejaVuSans-30" x="127.246094"/>
       <use xlink:href="#DejaVuSans-30" x="190.869141"/>
      </g>
     </g>
    </g>
    <g id="xtick_7">
     <g id="line2d_7">
      <g>
       <use xlink:href="#m2381a61039" x="321.595407" y="307.584" style="stroke: #000000; stroke-width: 0.8"/>
      </g>
     </g>
     <g id="text_7">
      <!-- 3000 -->
      <g transform="translate(308.870407 322.182437) scale(0.1 -0.1)">
       <defs>
        <path id="DejaVuSans-33" d="M 2597 2516 
Q 3050 2419 3304 2112 
Q 3559 1806 3559 1356 
Q 3559 666 3084 287 
Q 2609 -91 1734 -91 
Q 1441 -91 1130 -33 
Q 819 25 488 141 
L 488 750 
Q 750 597 1062 519 
Q 1375 441 1716 441 
Q 2309 441 2620 675 
Q 2931 909 2931 1356 
Q 2931 1769 2642 2001 
Q 2353 2234 1838 2234 
L 1294 2234 
L 1294 2753 
L 1863 2753 
Q 2328 2753 2575 2939 
Q 2822 3125 2822 3475 
Q 2822 3834 2567 4026 
Q 2313 4219 1838 4219 
Q 1578 4219 1281 4162 
Q 984 4106 628 3988 
L 628 4550 
Q 988 4650 1302 4700 
Q 1616 4750 1894 4750 
Q 2613 4750 3031 4423 
Q 3450 4097 3450 3541 
Q 3450 3153 3228 2886 
Q 3006 2619 2597 2516 
z
" transform="scale(0.015625)"/>
       </defs>
       <use xlink:href="#DejaVuSans-33"/>
       <use xlink:href="#DejaVuSans-30" x="63.623047"/>
       <use xlink:href="#DejaVuSans-30" x="127.246094"/>
       <use xlink:href="#DejaVuSans-30" x="190.869141"/>
      </g>
     </g>
    </g>
    <g id="xtick_8">
     <g id="line2d_8">
      <g>
       <use xlink:href="#m2381a61039" x="364.31311" y="307.584" style="stroke: #000000; stroke-width: 0.8"/>
      </g>
     </g>
     <g id="text_8">
      <!-- 3500 -->
      <g transform="translate(351.58811 322.182437) scale(0.1 -0.1)">
       <use xlink:href="#DejaVuSans-33"/>
       <use xlink:href="#DejaVuSans-35" x="63.623047"/>
       <use xlink:href="#DejaVuSans-30" x="127.246094"/>
       <use xlink:href="#DejaVuSans-30" x="190.869141"/>
      </g>
     </g>
    </g>
    <g id="xtick_9">
     <g id="line2d_9">
      <g>
       <use xlink:href="#m2381a61039" x="407.030813" y="307.584" style="stroke: #000000; stroke-width: 0.8"/>
      </g>
     </g>
     <g id="text_9">
      <!-- 4000 -->
      <g transform="translate(394.305813 322.182437) scale(0.1 -0.1)">
       <defs>
        <path id="DejaVuSans-34" d="M 2419 4116 
L 825 1625 
L 2419 1625 
L 2419 4116 
z
M 2253 4666 
L 3047 4666 
L 3047 1625 
L 3713 1625 
L 3713 1100 
L 3047 1100 
L 3047 0 
L 2419 0 
L 2419 1100 
L 313 1100 
L 313 1709 
L 2253 4666 
z
" transform="scale(0.015625)"/>
       </defs>
       <use xlink:href="#DejaVuSans-34"/>
       <use xlink:href="#DejaVuSans-30" x="63.623047"/>
       <use xlink:href="#DejaVuSans-30" x="127.246094"/>
       <use xlink:href="#DejaVuSans-30" x="190.869141"/>
      </g>
     </g>
    </g>
    <g id="text_10">
     <!-- Dimension -->
     <g transform="translate(209.583438 335.860562) scale(0.1 -0.1)">
      <defs>
       <path id="DejaVuSans-44" d="M 1259 4147 
L 1259 519 
L 2022 519 
Q 2988 519 3436 956 
Q 3884 1394 3884 2338 
Q 3884 3275 3436 3711 
Q 2988 4147 2022 4147 
L 1259 4147 
z
M 628 4666 
L 1925 4666 
Q 3281 4666 3915 4102 
Q 4550 3538 4550 2338 
Q 4550 1131 3912 565 
Q 3275 0 1925 0 
L 628 0 
L 628 4666 
z
" transform="scale(0.015625)"/>
       <path id="DejaVuSans-69" d="M 603 3500 
L 1178 3500 
L 1178 0 
L 603 0 
L 603 3500 
z
M 603 4863 
L 1178 4863 
L 1178 4134 
L 603 4134 
L 603 4863 
z
" transform="scale(0.015625)"/>
       <path id="DejaVuSans-6d" d="M 3328 2828 
Q 3544 3216 3844 3400 
Q 4144 3584 4550 3584 
Q 5097 3584 5394 3201 
Q 5691 2819 5691 2113 
L 5691 0 
L 5113 0 
L 5113 2094 
Q 5113 2597 4934 2840 
Q 4756 3084 4391 3084 
Q 3944 3084 3684 2787 
Q 3425 2491 3425 1978 
L 3425 0 
L 2847 0 
L 2847 2094 
Q 2847 2600 2669 2842 
Q 2491 3084 2119 3084 
Q 1678 3084 1418 2786 
Q 1159 2488 1159 1978 
L 1159 0 
L 581 0 
L 581 3500 
L 1159 3500 
L 1159 2956 
Q 1356 3278 1631 3431 
Q 1906 3584 2284 3584 
Q 2666 3584 2933 3390 
Q 3200 3197 3328 2828 
z
" transform="scale(0.015625)"/>
       <path id="DejaVuSans-65" d="M 3597 1894 
L 3597 1613 
L 953 1613 
Q 991 1019 1311 708 
Q 1631 397 2203 397 
Q 2534 397 2845 478 
Q 3156 559 3463 722 
L 3463 178 
Q 3153 47 2828 -22 
Q 2503 -91 2169 -91 
Q 1331 -91 842 396 
Q 353 884 353 1716 
Q 353 2575 817 3079 
Q 1281 3584 2069 3584 
Q 2775 3584 3186 3129 
Q 3597 2675 3597 1894 
z
M 3022 2063 
Q 3016 2534 2758 2815 
Q 2500 3097 2075 3097 
Q 1594 3097 1305 2825 
Q 1016 2553 972 2059 
L 3022 2063 
z
" transform="scale(0.015625)"/>
       <path id="DejaVuSans-6e" d="M 3513 2113 
L 3513 0 
L 2938 0 
L 2938 2094 
Q 2938 2591 2744 2837 
Q 2550 3084 2163 3084 
Q 1697 3084 1428 2787 
Q 1159 2491 1159 1978 
L 1159 0 
L 581 0 
L 581 3500 
L 1159 3500 
L 1159 2956 
Q 1366 3272 1645 3428 
Q 1925 3584 2291 3584 
Q 2894 3584 3203 3211 
Q 3513 2838 3513 2113 
z
" transform="scale(0.015625)"/>
       <path id="DejaVuSans-73" d="M 2834 3397 
L 2834 2853 
Q 2591 2978 2328 3040 
Q 2066 3103 1784 3103 
Q 1356 3103 1142 2972 
Q 928 2841 928 2578 
Q 928 2378 1081 2264 
Q 1234 2150 1697 2047 
L 1894 2003 
Q 2506 1872 2764 1633 
Q 3022 1394 3022 966 
Q 3022 478 2636 193 
Q 2250 -91 1575 -91 
Q 1294 -91 989 -36 
Q 684 19 347 128 
L 347 722 
Q 666 556 975 473 
Q 1284 391 1588 391 
Q 1994 391 2212 530 
Q 2431 669 2431 922 
Q 2431 1156 2273 1281 
Q 2116 1406 1581 1522 
L 1381 1569 
Q 847 1681 609 1914 
Q 372 2147 372 2553 
Q 372 3047 722 3315 
Q 1072 3584 1716 3584 
Q 2034 3584 2315 3537 
Q 2597 3491 2834 3397 
z
" transform="scale(0.015625)"/>
       <path id="DejaVuSans-6f" d="M 1959 3097 
Q 1497 3097 1228 2736 
Q 959 2375 959 1747 
Q 959 1119 1226 758 
Q 1494 397 1959 397 
Q 2419 397 2687 759 
Q 2956 1122 2956 1747 
Q 2956 2369 2687 2733 
Q 2419 3097 1959 3097 
z
M 1959 3584 
Q 2709 3584 3137 3096 
Q 3566 2609 3566 1747 
Q 3566 888 3137 398 
Q 2709 -91 1959 -91 
Q 1206 -91 779 398 
Q 353 888 353 1747 
Q 353 2609 779 3096 
Q 1206 3584 1959 3584 
z
" transform="scale(0.015625)"/>
      </defs>
      <use xlink:href="#DejaVuSans-44"/>
      <use xlink:href="#DejaVuSans-69" x="77.001953"/>
      <use xlink:href="#DejaVuSans-6d" x="104.785156"/>
      <use xlink:href="#DejaVuSans-65" x="202.197266"/>
      <use xlink:href="#DejaVuSans-6e" x="263.720703"/>
      <use xlink:href="#DejaVuSans-73" x="327.099609"/>
      <use xlink:href="#DejaVuSans-69" x="379.199219"/>
      <use xlink:href="#DejaVuSans-6f" x="406.982422"/>
      <use xlink:href="#DejaVuSans-6e" x="468.164062"/>
     </g>
    </g>
   </g>
   <g id="matplotlib.axis_2">
    <g id="ytick_1">
     <g id="line2d_10">
      <defs>
       <path id="m5e7a0ebae2" d="M 0 0 
L -3.5 0 
" style="stroke: #000000; stroke-width: 0.8"/>
      </defs>
      <g>
       <use xlink:href="#m5e7a0ebae2" x="57.6" y="295.4882" style="stroke: #000000; stroke-width: 0.8"/>
      </g>
     </g>
     <g id="text_11">
      <!-- 0 -->
      <g transform="translate(44.2375 299.287418) scale(0.1 -0.1)">
       <use xlink:href="#DejaVuSans-30"/>
      </g>
     </g>
    </g>
    <g id="ytick_2">
     <g id="line2d_11">
      <g>
       <use xlink:href="#m5e7a0ebae2" x="57.6" y="257.8754" style="stroke: #000000; stroke-width: 0.8"/>
      </g>
     </g>
     <g id="text_12">
      <!-- 20000 -->
      <g transform="translate(18.7875 261.674619) scale(0.1 -0.1)">
       <use xlink:href="#DejaVuSans-32"/>
       <use xlink:href="#DejaVuSans-30" x="63.623047"/>
       <use xlink:href="#DejaVuSans-30" x="127.246094"/>
       <use xlink:href="#DejaVuSans-30" x="190.869141"/>
       <use xlink:href="#DejaVuSans-30" x="254.492188"/>
      </g>
     </g>
    </g>
    <g id="ytick_3">
     <g id="line2d_12">
      <g>
       <use xlink:href="#m5e7a0ebae2" x="57.6" y="220.262601" style="stroke: #000000; stroke-width: 0.8"/>
      </g>
     </g>
     <g id="text_13">
      <!-- 40000 -->
      <g transform="translate(18.7875 224.061819) scale(0.1 -0.1)">
       <use xlink:href="#DejaVuSans-34"/>
       <use xlink:href="#DejaVuSans-30" x="63.623047"/>
       <use xlink:href="#DejaVuSans-30" x="127.246094"/>
       <use xlink:href="#DejaVuSans-30" x="190.869141"/>
       <use xlink:href="#DejaVuSans-30" x="254.492188"/>
      </g>
     </g>
    </g>
    <g id="ytick_4">
     <g id="line2d_13">
      <g>
       <use xlink:href="#m5e7a0ebae2" x="57.6" y="182.649801" style="stroke: #000000; stroke-width: 0.8"/>
      </g>
     </g>
     <g id="text_14">
      <!-- 60000 -->
      <g transform="translate(18.7875 186.44902) scale(0.1 -0.1)">
       <defs>
        <path id="DejaVuSans-36" d="M 2113 2584 
Q 1688 2584 1439 2293 
Q 1191 2003 1191 1497 
Q 1191 994 1439 701 
Q 1688 409 2113 409 
Q 2538 409 2786 701 
Q 3034 994 3034 1497 
Q 3034 2003 2786 2293 
Q 2538 2584 2113 2584 
z
M 3366 4563 
L 3366 3988 
Q 3128 4100 2886 4159 
Q 2644 4219 2406 4219 
Q 1781 4219 1451 3797 
Q 1122 3375 1075 2522 
Q 1259 2794 1537 2939 
Q 1816 3084 2150 3084 
Q 2853 3084 3261 2657 
Q 3669 2231 3669 1497 
Q 3669 778 3244 343 
Q 2819 -91 2113 -91 
Q 1303 -91 875 529 
Q 447 1150 447 2328 
Q 447 3434 972 4092 
Q 1497 4750 2381 4750 
Q 2619 4750 2861 4703 
Q 3103 4656 3366 4563 
z
" transform="scale(0.015625)"/>
       </defs>
       <use xlink:href="#DejaVuSans-36"/>
       <use xlink:href="#DejaVuSans-30" x="63.623047"/>
       <use xlink:href="#DejaVuSans-30" x="127.246094"/>
       <use xlink:href="#DejaVuSans-30" x="190.869141"/>
       <use xlink:href="#DejaVuSans-30" x="254.492188"/>
      </g>
     </g>
    </g>
    <g id="ytick_5">
     <g id="line2d_14">
      <g>
       <use xlink:href="#m5e7a0ebae2" x="57.6" y="145.037002" style="stroke: #000000; stroke-width: 0.8"/>
      </g>
     </g>
     <g id="text_15">
      <!-- 80000 -->
      <g transform="translate(18.7875 148.83622) scale(0.1 -0.1)">
       <defs>
        <path id="DejaVuSans-38" d="M 2034 2216 
Q 1584 2216 1326 1975 
Q 1069 1734 1069 1313 
Q 1069 891 1326 650 
Q 1584 409 2034 409 
Q 2484 409 2743 651 
Q 3003 894 3003 1313 
Q 3003 1734 2745 1975 
Q 2488 2216 2034 2216 
z
M 1403 2484 
Q 997 2584 770 2862 
Q 544 3141 544 3541 
Q 544 4100 942 4425 
Q 1341 4750 2034 4750 
Q 2731 4750 3128 4425 
Q 3525 4100 3525 3541 
Q 3525 3141 3298 2862 
Q 3072 2584 2669 2484 
Q 3125 2378 3379 2068 
Q 3634 1759 3634 1313 
Q 3634 634 3220 271 
Q 2806 -91 2034 -91 
Q 1263 -91 848 271 
Q 434 634 434 1313 
Q 434 1759 690 2068 
Q 947 2378 1403 2484 
z
M 1172 3481 
Q 1172 3119 1398 2916 
Q 1625 2713 2034 2713 
Q 2441 2713 2670 2916 
Q 2900 3119 2900 3481 
Q 2900 3844 2670 4047 
Q 2441 4250 2034 4250 
Q 1625 4250 1398 4047 
Q 1172 3844 1172 3481 
z
" transform="scale(0.015625)"/>
       </defs>
       <use xlink:href="#DejaVuSans-38"/>
       <use xlink:href="#DejaVuSans-30" x="63.623047"/>
       <use xlink:href="#DejaVuSans-30" x="127.246094"/>
       <use xlink:href="#DejaVuSans-30" x="190.869141"/>
       <use xlink:href="#DejaVuSans-30" x="254.492188"/>
      </g>
     </g>
    </g>
    <g id="ytick_6">
     <g id="line2d_15">
      <g>
       <use xlink:href="#m5e7a0ebae2" x="57.6" y="107.424202" style="stroke: #000000; stroke-width: 0.8"/>
      </g>
     </g>
     <g id="text_16">
      <!-- 100000 -->
      <g transform="translate(12.425 111.223421) scale(0.1 -0.1)">
       <use xlink:href="#DejaVuSans-31"/>
       <use xlink:href="#DejaVuSans-30" x="63.623047"/>
       <use xlink:href="#DejaVuSans-30" x="127.246094"/>
       <use xlink:href="#DejaVuSans-30" x="190.869141"/>
       <use xlink:href="#DejaVuSans-30" x="254.492188"/>
       <use xlink:href="#DejaVuSans-30" x="318.115234"/>
      </g>
     </g>
    </g>
    <g id="ytick_7">
     <g id="line2d_16">
      <g>
       <use xlink:href="#m5e7a0ebae2" x="57.6" y="69.811403" style="stroke: #000000; stroke-width: 0.8"/>
      </g>
     </g>
     <g id="text_17">
      <!-- 120000 -->
      <g transform="translate(12.425 73.610622) scale(0.1 -0.1)">
       <use xlink:href="#DejaVuSans-31"/>
       <use xlink:href="#DejaVuSans-32" x="63.623047"/>
       <use xlink:href="#DejaVuSans-30" x="127.246094"/>
       <use xlink:href="#DejaVuSans-30" x="190.869141"/>
       <use xlink:href="#DejaVuSans-30" x="254.492188"/>
       <use xlink:href="#DejaVuSans-30" x="318.115234"/>
      </g>
     </g>
    </g>
    <g id="text_18">
     <!-- Real Time (ms) -->
     <g transform="translate(6.345312 212.095188) rotate(-90) scale(0.1 -0.1)">
      <defs>
       <path id="DejaVuSans-52" d="M 2841 2188 
Q 3044 2119 3236 1894 
Q 3428 1669 3622 1275 
L 4263 0 
L 3584 0 
L 2988 1197 
Q 2756 1666 2539 1819 
Q 2322 1972 1947 1972 
L 1259 1972 
L 1259 0 
L 628 0 
L 628 4666 
L 2053 4666 
Q 2853 4666 3247 4331 
Q 3641 3997 3641 3322 
Q 3641 2881 3436 2590 
Q 3231 2300 2841 2188 
z
M 1259 4147 
L 1259 2491 
L 2053 2491 
Q 2509 2491 2742 2702 
Q 2975 2913 2975 3322 
Q 2975 3731 2742 3939 
Q 2509 4147 2053 4147 
L 1259 4147 
z
" transform="scale(0.015625)"/>
       <path id="DejaVuSans-61" d="M 2194 1759 
Q 1497 1759 1228 1600 
Q 959 1441 959 1056 
Q 959 750 1161 570 
Q 1363 391 1709 391 
Q 2188 391 2477 730 
Q 2766 1069 2766 1631 
L 2766 1759 
L 2194 1759 
z
M 3341 1997 
L 3341 0 
L 2766 0 
L 2766 531 
Q 2569 213 2275 61 
Q 1981 -91 1556 -91 
Q 1019 -91 701 211 
Q 384 513 384 1019 
Q 384 1609 779 1909 
Q 1175 2209 1959 2209 
L 2766 2209 
L 2766 2266 
Q 2766 2663 2505 2880 
Q 2244 3097 1772 3097 
Q 1472 3097 1187 3025 
Q 903 2953 641 2809 
L 641 3341 
Q 956 3463 1253 3523 
Q 1550 3584 1831 3584 
Q 2591 3584 2966 3190 
Q 3341 2797 3341 1997 
z
" transform="scale(0.015625)"/>
       <path id="DejaVuSans-6c" d="M 603 4863 
L 1178 4863 
L 1178 0 
L 603 0 
L 603 4863 
z
" transform="scale(0.015625)"/>
       <path id="DejaVuSans-20" transform="scale(0.015625)"/>
       <path id="DejaVuSans-54" d="M -19 4666 
L 3928 4666 
L 3928 4134 
L 2272 4134 
L 2272 0 
L 1638 0 
L 1638 4134 
L -19 4134 
L -19 4666 
z
" transform="scale(0.015625)"/>
       <path id="DejaVuSans-28" d="M 1984 4856 
Q 1566 4138 1362 3434 
Q 1159 2731 1159 2009 
Q 1159 1288 1364 580 
Q 1569 -128 1984 -844 
L 1484 -844 
Q 1016 -109 783 600 
Q 550 1309 550 2009 
Q 550 2706 781 3412 
Q 1013 4119 1484 4856 
L 1984 4856 
z
" transform="scale(0.015625)"/>
       <path id="DejaVuSans-29" d="M 513 4856 
L 1013 4856 
Q 1481 4119 1714 3412 
Q 1947 2706 1947 2009 
Q 1947 1309 1714 600 
Q 1481 -109 1013 -844 
L 513 -844 
Q 928 -128 1133 580 
Q 1338 1288 1338 2009 
Q 1338 2731 1133 3434 
Q 928 4138 513 4856 
z
" transform="scale(0.015625)"/>
      </defs>
      <use xlink:href="#DejaVuSans-52"/>
      <use xlink:href="#DejaVuSans-65" x="64.982422"/>
      <use xlink:href="#DejaVuSans-61" x="126.505859"/>
      <use xlink:href="#DejaVuSans-6c" x="187.785156"/>
      <use xlink:href="#DejaVuSans-20" x="215.568359"/>
      <use xlink:href="#DejaVuSans-54" x="247.355469"/>
      <use xlink:href="#DejaVuSans-69" x="305.314453"/>
      <use xlink:href="#DejaVuSans-6d" x="333.097656"/>
      <use xlink:href="#DejaVuSans-65" x="430.509766"/>
      <use xlink:href="#DejaVuSans-20" x="492.033203"/>
      <use xlink:href="#DejaVuSans-28" x="523.820312"/>
      <use xlink:href="#DejaVuSans-6d" x="562.833984"/>
      <use xlink:href="#DejaVuSans-73" x="660.246094"/>
      <use xlink:href="#DejaVuSans-29" x="712.345703"/>
     </g>
    </g>
   </g>
   <g id="line2d_17">
    <path d="M 73.832727 295.487993 
L 90.919809 295.486701 
L 108.00689 295.482962 
L 125.093971 295.475494 
L 142.181053 295.463402 
L 159.268134 295.444907 
L 176.355215 295.419045 
L 193.442297 295.384968 
L 210.529378 295.338262 
L 227.616459 295.281194 
" clip-path="url(#p083066cb33)" style="fill: none; stroke-dasharray: 5.55,2.4; stroke-dashoffset: 0; stroke: #000000; stroke-width: 1.5"/>
    <defs>
     <path id="m33e9163c95" d="M -0 3 
L 3 -3 
L -3 -3 
z
" style="stroke: #000000; stroke-linejoin: miter"/>
    </defs>
    <g clip-path="url(#p083066cb33)">
     <use xlink:href="#m33e9163c95" x="73.832727" y="295.487993" style="stroke: #000000; stroke-linejoin: miter"/>
     <use xlink:href="#m33e9163c95" x="90.919809" y="295.486701" style="stroke: #000000; stroke-linejoin: miter"/>
     <use xlink:href="#m33e9163c95" x="108.00689" y="295.482962" style="stroke: #000000; stroke-linejoin: miter"/>
     <use xlink:href="#m33e9163c95" x="125.093971" y="295.475494" style="stroke: #000000; stroke-linejoin: miter"/>
     <use xlink:href="#m33e9163c95" x="142.181053" y="295.463402" style="stroke: #000000; stroke-linejoin: miter"/>
     <use xlink:href="#m33e9163c95" x="159.268134" y="295.444907" style="stroke: #000000; stroke-linejoin: miter"/>
     <use xlink:href="#m33e9163c95" x="176.355215" y="295.419045" style="stroke: #000000; stroke-linejoin: miter"/>
     <use xlink:href="#m33e9163c95" x="193.442297" y="295.384968" style="stroke: #000000; stroke-linejoin: miter"/>
     <use xlink:href="#m33e9163c95" x="210.529378" y="295.338262" style="stroke: #000000; stroke-linejoin: miter"/>
     <use xlink:href="#m33e9163c95" x="227.616459" y="295.281194" style="stroke: #000000; stroke-linejoin: miter"/>
    </g>
   </g>
   <g id="line2d_18">
    <path d="M 73.832727 295.487985 
L 90.919809 295.486663 
L 108.00689 295.48299 
L 125.093971 295.475492 
L 142.181053 295.463389 
L 159.268134 295.444756 
L 176.355215 295.419123 
L 193.442297 295.383845 
L 210.529378 295.339577 
L 227.616459 295.28389 
" clip-path="url(#p083066cb33)" style="fill: none; stroke: #008000; stroke-width: 1.5; stroke-linecap: square"/>
    <defs>
     <path id="md6f4750f3b" d="M 0 -3 
L -2.85317 -0.927051 
L -1.763356 2.427051 
L 1.763356 2.427051 
L 2.85317 -0.927051 
z
" style="stroke: #008000; stroke-linejoin: miter"/>
    </defs>
    <g clip-path="url(#p083066cb33)">
     <use xlink:href="#md6f4750f3b" x="73.832727" y="295.487985" style="fill: #008000; stroke: #008000; stroke-linejoin: miter"/>
     <use xlink:href="#md6f4750f3b" x="90.919809" y="295.486663" style="fill: #008000; stroke: #008000; stroke-linejoin: miter"/>
     <use xlink:href="#md6f4750f3b" x="108.00689" y="295.48299" style="fill: #008000; stroke: #008000; stroke-linejoin: miter"/>
     <use xlink:href="#md6f4750f3b" x="125.093971" y="295.475492" style="fill: #008000; stroke: #008000; stroke-linejoin: miter"/>
     <use xlink:href="#md6f4750f3b" x="142.181053" y="295.463389" style="fill: #008000; stroke: #008000; stroke-linejoin: miter"/>
     <use xlink:href="#md6f4750f3b" x="159.268134" y="295.444756" style="fill: #008000; stroke: #008000; stroke-linejoin: miter"/>
     <use xlink:href="#md6f4750f3b" x="176.355215" y="295.419123" style="fill: #008000; stroke: #008000; stroke-linejoin: miter"/>
     <use xlink:href="#md6f4750f3b" x="193.442297" y="295.383845" style="fill: #008000; stroke: #008000; stroke-linejoin: miter"/>
     <use xlink:href="#md6f4750f3b" x="210.529378" y="295.339577" style="fill: #008000; stroke: #008000; stroke-linejoin: miter"/>
     <use xlink:href="#md6f4750f3b" x="227.616459" y="295.28389" style="fill: #008000; stroke: #008000; stroke-linejoin: miter"/>
    </g>
   </g>
   <g id="line2d_19">
    <path d="M 73.832727 295.486786 
L 90.919809 295.479462 
L 108.00689 295.457905 
L 125.093971 295.402338 
L 142.181053 295.289858 
L 159.268134 295.091116 
L 176.355215 294.825743 
L 193.442297 294.477049 
L 210.529378 294.032443 
L 227.616459 293.459689 
L 244.703541 292.784577 
L 261.790622 292.038624 
L 278.877703 288.369092 
L 295.964785 285.601626 
L 313.051866 274.027119 
L 330.138947 249.923851 
L 347.226029 228.289119 
L 364.31311 203.819363 
L 381.400191 172.236545 
L 398.487273 176.84071 
" clip-path="url(#p083066cb33)" style="fill: none; stroke: #ffd700; stroke-width: 1.5; stroke-linecap: square"/>
    <defs>
     <path id="m5ff7a4cbe8" d="M 0 1.5 
C 0.397805 1.5 0.77937 1.341951 1.06066 1.06066 
C 1.341951 0.77937 1.5 0.397805 1.5 0 
C 1.5 -0.397805 1.341951 -0.77937 1.06066 -1.06066 
C 0.77937 -1.341951 0.397805 -1.5 0 -1.5 
C -0.397805 -1.5 -0.77937 -1.341951 -1.06066 -1.06066 
C -1.341951 -0.77937 -1.5 -0.397805 -1.5 0 
C -1.5 0.397805 -1.341951 0.77937 -1.06066 1.06066 
C -0.77937 1.341951 -0.397805 1.5 0 1.5 
z
" style="stroke: #ffd700"/>
    </defs>
    <g clip-path="url(#p083066cb33)">
     <use xlink:href="#m5ff7a4cbe8" x="73.832727" y="295.486786" style="fill: #ffd700; stroke: #ffd700"/>
     <use xlink:href="#m5ff7a4cbe8" x="90.919809" y="295.479462" style="fill: #ffd700; stroke: #ffd700"/>
     <use xlink:href="#m5ff7a4cbe8" x="108.00689" y="295.457905" style="fill: #ffd700; stroke: #ffd700"/>
     <use xlink:href="#m5ff7a4cbe8" x="125.093971" y="295.402338" style="fill: #ffd700; stroke: #ffd700"/>
     <use xlink:href="#m5ff7a4cbe8" x="142.181053" y="295.289858" style="fill: #ffd700; stroke: #ffd700"/>
     <use xlink:href="#m5ff7a4cbe8" x="159.268134" y="295.091116" style="fill: #ffd700; stroke: #ffd700"/>
     <use xlink:href="#m5ff7a4cbe8" x="176.355215" y="294.825743" style="fill: #ffd700; stroke: #ffd700"/>
     <use xlink:href="#m5ff7a4cbe8" x="193.442297" y="294.477049" style="fill: #ffd700; stroke: #ffd700"/>
     <use xlink:href="#m5ff7a4cbe8" x="210.529378" y="294.032443" style="fill: #ffd700; stroke: #ffd700"/>
     <use xlink:href="#m5ff7a4cbe8" x="227.616459" y="293.459689" style="fill: #ffd700; stroke: #ffd700"/>
     <use xlink:href="#m5ff7a4cbe8" x="244.703541" y="292.784577" style="fill: #ffd700; stroke: #ffd700"/>
     <use xlink:href="#m5ff7a4cbe8" x="261.790622" y="292.038624" style="fill: #ffd700; stroke: #ffd700"/>
     <use xlink:href="#m5ff7a4cbe8" x="278.877703" y="288.369092" style="fill: #ffd700; stroke: #ffd700"/>
     <use xlink:href="#m5ff7a4cbe8" x="295.964785" y="285.601626" style="fill: #ffd700; stroke: #ffd700"/>
     <use xlink:href="#m5ff7a4cbe8" x="313.051866" y="274.027119" style="fill: #ffd700; stroke: #ffd700"/>
     <use xlink:href="#m5ff7a4cbe8" x="330.138947" y="249.923851" style="fill: #ffd700; stroke: #ffd700"/>
     <use xlink:href="#m5ff7a4cbe8" x="347.226029" y="228.289119" style="fill: #ffd700; stroke: #ffd700"/>
     <use xlink:href="#m5ff7a4cbe8" x="364.31311" y="203.819363" style="fill: #ffd700; stroke: #ffd700"/>
     <use xlink:href="#m5ff7a4cbe8" x="381.400191" y="172.236545" style="fill: #ffd700; stroke: #ffd700"/>
     <use xlink:href="#m5ff7a4cbe8" x="398.487273" y="176.84071" style="fill: #ffd700; stroke: #ffd700"/>
    </g>
   </g>
   <g id="line2d_20">
    <path d="M 73.832727 295.48791 
L 90.919809 295.478907 
L 108.00689 295.42366 
L 125.093971 295.272473 
L 142.181053 295.026968 
L 159.268134 294.64963 
L 176.355215 293.458116 
L 193.442297 290.969611 
L 210.529378 276.260586 
L 227.616459 256.958277 
" clip-path="url(#p083066cb33)" style="fill: none; stroke: #0000ff; stroke-width: 1.5; stroke-linecap: square"/>
    <defs>
     <path id="m9b62356f3b" d="M 0 1.5 
C 0.397805 1.5 0.77937 1.341951 1.06066 1.06066 
C 1.341951 0.77937 1.5 0.397805 1.5 0 
C 1.5 -0.397805 1.341951 -0.77937 1.06066 -1.06066 
C 0.77937 -1.341951 0.397805 -1.5 0 -1.5 
C -0.397805 -1.5 -0.77937 -1.341951 -1.06066 -1.06066 
C -1.341951 -0.77937 -1.5 -0.397805 -1.5 0 
C -1.5 0.397805 -1.341951 0.77937 -1.06066 1.06066 
C -0.77937 1.341951 -0.397805 1.5 0 1.5 
z
" style="stroke: #0000ff"/>
    </defs>
    <g clip-path="url(#p083066cb33)">
     <use xlink:href="#m9b62356f3b" x="73.832727" y="295.48791" style="fill: #0000ff; stroke: #0000ff"/>
     <use xlink:href="#m9b62356f3b" x="90.919809" y="295.478907" style="fill: #0000ff; stroke: #0000ff"/>
     <use xlink:href="#m9b62356f3b" x="108.00689" y="295.42366" style="fill: #0000ff; stroke: #0000ff"/>
     <use xlink:href="#m9b62356f3b" x="125.093971" y="295.272473" style="fill: #0000ff; stroke: #0000ff"/>
     <use xlink:href="#m9b62356f3b" x="142.181053" y="295.026968" style="fill: #0000ff; stroke: #0000ff"/>
     <use xlink:href="#m9b62356f3b" x="159.268134" y="294.64963" style="fill: #0000ff; stroke: #0000ff"/>
     <use xlink:href="#m9b62356f3b" x="176.355215" y="293.458116" style="fill: #0000ff; stroke: #0000ff"/>
     <use xlink:href="#m9b62356f3b" x="193.442297" y="290.969611" style="fill: #0000ff; stroke: #0000ff"/>
     <use xlink:href="#m9b62356f3b" x="210.529378" y="276.260586" style="fill: #0000ff; stroke: #0000ff"/>
     <use xlink:href="#m9b62356f3b" x="227.616459" y="256.958277" style="fill: #0000ff; stroke: #0000ff"/>
    </g>
   </g>
   <g id="line2d_21">
    <path d="M 73.832727 295.487901 
L 90.919809 295.48599 
L 108.00689 295.480047 
L 125.093971 295.467792 
L 142.181053 295.465123 
L 159.268134 295.448148 
L 176.355215 295.423838 
L 193.442297 295.392615 
L 210.529378 295.351257 
L 227.616459 295.299521 
" clip-path="url(#p083066cb33)" style="fill: none; stroke: #808000; stroke-width: 1.5; stroke-linecap: square"/>
    <defs>
     <path id="m0f3818a3ad" d="M 0 3 
C 0.795609 3 1.55874 2.683901 2.12132 2.12132 
C 2.683901 1.55874 3 0.795609 3 0 
C 3 -0.795609 2.683901 -1.55874 2.12132 -2.12132 
C 1.55874 -2.683901 0.795609 -3 0 -3 
C -0.795609 -3 -1.55874 -2.683901 -2.12132 -2.12132 
C -2.683901 -1.55874 -3 -0.795609 -3 0 
C -3 0.795609 -2.683901 1.55874 -2.12132 2.12132 
C -1.55874 2.683901 -0.795609 3 0 3 
z
" style="stroke: #808000"/>
    </defs>
    <g clip-path="url(#p083066cb33)">
     <use xlink:href="#m0f3818a3ad" x="73.832727" y="295.487901" style="fill: #808000; stroke: #808000"/>
     <use xlink:href="#m0f3818a3ad" x="90.919809" y="295.48599" style="fill: #808000; stroke: #808000"/>
     <use xlink:href="#m0f3818a3ad" x="108.00689" y="295.480047" style="fill: #808000; stroke: #808000"/>
     <use xlink:href="#m0f3818a3ad" x="125.093971" y="295.467792" style="fill: #808000; stroke: #808000"/>
     <use xlink:href="#m0f3818a3ad" x="142.181053" y="295.465123" style="fill: #808000; stroke: #808000"/>
     <use xlink:href="#m0f3818a3ad" x="159.268134" y="295.448148" style="fill: #808000; stroke: #808000"/>
     <use xlink:href="#m0f3818a3ad" x="176.355215" y="295.423838" style="fill: #808000; stroke: #808000"/>
     <use xlink:href="#m0f3818a3ad" x="193.442297" y="295.392615" style="fill: #808000; stroke: #808000"/>
     <use xlink:href="#m0f3818a3ad" x="210.529378" y="295.351257" style="fill: #808000; stroke: #808000"/>
     <use xlink:href="#m0f3818a3ad" x="227.616459" y="295.299521" style="fill: #808000; stroke: #808000"/>
    </g>
   </g>
   <g id="line2d_22">
    <path d="M 73.832727 295.485556 
L 90.919809 295.465241 
L 108.00689 295.314243 
L 125.093971 294.995785 
L 142.181053 294.534371 
L 159.268134 293.921139 
L 176.355215 293.033664 
L 193.442297 291.68246 
L 210.529378 288.215468 
L 227.616459 267.156771 
L 244.703541 256.888422 
L 261.790622 244.829444 
L 278.877703 231.54436 
L 295.964785 215.157104 
L 313.051866 197.128211 
L 330.138947 174.661087 
L 347.226029 152.225769 
L 364.31311 123.935948 
L 381.400191 94.65204 
L 398.487273 53.568 
" clip-path="url(#p083066cb33)" style="fill: none; stroke: #800080; stroke-width: 1.5; stroke-linecap: square"/>
    <defs>
     <path id="m0f7d0c6e71" d="M 0 1.5 
C 0.397805 1.5 0.77937 1.341951 1.06066 1.06066 
C 1.341951 0.77937 1.5 0.397805 1.5 0 
C 1.5 -0.397805 1.341951 -0.77937 1.06066 -1.06066 
C 0.77937 -1.341951 0.397805 -1.5 0 -1.5 
C -0.397805 -1.5 -0.77937 -1.341951 -1.06066 -1.06066 
C -1.341951 -0.77937 -1.5 -0.397805 -1.5 0 
C -1.5 0.397805 -1.341951 0.77937 -1.06066 1.06066 
C -0.77937 1.341951 -0.397805 1.5 0 1.5 
z
" style="stroke: #800080"/>
    </defs>
    <g clip-path="url(#p083066cb33)">
     <use xlink:href="#m0f7d0c6e71" x="73.832727" y="295.485556" style="fill: #800080; stroke: #800080"/>
     <use xlink:href="#m0f7d0c6e71" x="90.919809" y="295.465241" style="fill: #800080; stroke: #800080"/>
     <use xlink:href="#m0f7d0c6e71" x="108.00689" y="295.314243" style="fill: #800080; stroke: #800080"/>
     <use xlink:href="#m0f7d0c6e71" x="125.093971" y="294.995785" style="fill: #800080; stroke: #800080"/>
     <use xlink:href="#m0f7d0c6e71" x="142.181053" y="294.534371" style="fill: #800080; stroke: #800080"/>
     <use xlink:href="#m0f7d0c6e71" x="159.268134" y="293.921139" style="fill: #800080; stroke: #800080"/>
     <use xlink:href="#m0f7d0c6e71" x="176.355215" y="293.033664" style="fill: #800080; stroke: #800080"/>
     <use xlink:href="#m0f7d0c6e71" x="193.442297" y="291.68246" style="fill: #800080; stroke: #800080"/>
     <use xlink:href="#m0f7d0c6e71" x="210.529378" y="288.215468" style="fill: #800080; stroke: #800080"/>
     <use xlink:href="#m0f7d0c6e71" x="227.616459" y="267.156771" style="fill: #800080; stroke: #800080"/>
     <use xlink:href="#m0f7d0c6e71" x="244.703541" y="256.888422" style="fill: #800080; stroke: #800080"/>
     <use xlink:href="#m0f7d0c6e71" x="261.790622" y="244.829444" style="fill: #800080; stroke: #800080"/>
     <use xlink:href="#m0f7d0c6e71" x="278.877703" y="231.54436" style="fill: #800080; stroke: #800080"/>
     <use xlink:href="#m0f7d0c6e71" x="295.964785" y="215.157104" style="fill: #800080; stroke: #800080"/>
     <use xlink:href="#m0f7d0c6e71" x="313.051866" y="197.128211" style="fill: #800080; stroke: #800080"/>
     <use xlink:href="#m0f7d0c6e71" x="330.138947" y="174.661087" style="fill: #800080; stroke: #800080"/>
     <use xlink:href="#m0f7d0c6e71" x="347.226029" y="152.225769" style="fill: #800080; stroke: #800080"/>
     <use xlink:href="#m0f7d0c6e71" x="364.31311" y="123.935948" style="fill: #800080; stroke: #800080"/>
     <use xlink:href="#m0f7d0c6e71" x="381.400191" y="94.65204" style="fill: #800080; stroke: #800080"/>
     <use xlink:href="#m0f7d0c6e71" x="398.487273" y="53.568" style="fill: #800080; stroke: #800080"/>
    </g>
   </g>
   <g id="line2d_23">
    <path d="M 73.832727 295.488 
L 90.919809 295.486722 
L 108.00689 295.483246 
L 125.093971 295.476504 
L 142.181053 295.46558 
L 159.268134 295.445821 
L 176.355215 295.421267 
L 193.442297 295.386433 
L 210.529378 295.341232 
L 227.616459 295.281248 
" clip-path="url(#p083066cb33)" style="fill: none; stroke: #ff0000; stroke-width: 1.5; stroke-linecap: square"/>
    <defs>
     <path id="m89cca00090" d="M 0 -3 
L -0.673542 -0.927051 
L -2.85317 -0.927051 
L -1.089814 0.354102 
L -1.763356 2.427051 
L -0 1.145898 
L 1.763356 2.427051 
L 1.089814 0.354102 
L 2.85317 -0.927051 
L 0.673542 -0.927051 
z
" style="stroke: #ff0000; stroke-linejoin: bevel"/>
    </defs>
    <g clip-path="url(#p083066cb33)">
     <use xlink:href="#m89cca00090" x="73.832727" y="295.488" style="fill: #ff0000; stroke: #ff0000; stroke-linejoin: bevel"/>
     <use xlink:href="#m89cca00090" x="90.919809" y="295.486722" style="fill: #ff0000; stroke: #ff0000; stroke-linejoin: bevel"/>
     <use xlink:href="#m89cca00090" x="108.00689" y="295.483246" style="fill: #ff0000; stroke: #ff0000; stroke-linejoin: bevel"/>
     <use xlink:href="#m89cca00090" x="125.093971" y="295.476504" style="fill: #ff0000; stroke: #ff0000; stroke-linejoin: bevel"/>
     <use xlink:href="#m89cca00090" x="142.181053" y="295.46558" style="fill: #ff0000; stroke: #ff0000; stroke-linejoin: bevel"/>
     <use xlink:href="#m89cca00090" x="159.268134" y="295.445821" style="fill: #ff0000; stroke: #ff0000; stroke-linejoin: bevel"/>
     <use xlink:href="#m89cca00090" x="176.355215" y="295.421267" style="fill: #ff0000; stroke: #ff0000; stroke-linejoin: bevel"/>
     <use xlink:href="#m89cca00090" x="193.442297" y="295.386433" style="fill: #ff0000; stroke: #ff0000; stroke-linejoin: bevel"/>
     <use xlink:href="#m89cca00090" x="210.529378" y="295.341232" style="fill: #ff0000; stroke: #ff0000; stroke-linejoin: bevel"/>
     <use xlink:href="#m89cca00090" x="227.616459" y="295.281248" style="fill: #ff0000; stroke: #ff0000; stroke-linejoin: bevel"/>
    </g>
   </g>
   <g id="patch_3">
    <path d="M 57.6 307.584 
L 57.6 41.472 
" style="fill: none; stroke: #000000; stroke-width: 0.8; stroke-linejoin: miter; stroke-linecap: square"/>
   </g>
   <g id="patch_4">
    <path d="M 414.72 307.584 
L 414.72 41.472 
" style="fill: none; stroke: #000000; stroke-width: 0.8; stroke-linejoin: miter; stroke-linecap: square"/>
   </g>
   <g id="patch_5">
    <path d="M 57.6 307.584 
L 414.72 307.584 
" style="fill: none; stroke: #000000; stroke-width: 0.8; stroke-linejoin: miter; stroke-linecap: square"/>
   </g>
   <g id="patch_6">
    <path d="M 57.6 41.472 
L 414.72 41.472 
" style="fill: none; stroke: #000000; stroke-width: 0.8; stroke-linejoin: miter; stroke-linecap: square"/>
   </g>
   <g id="text_19">
    <!-- fig19 -->
    <g transform="translate(220.936875 35.472) scale(0.12 -0.12)">
     <defs>
      <path id="DejaVuSans-66" d="M 2375 4863 
L 2375 4384 
L 1825 4384 
Q 1516 4384 1395 4259 
Q 1275 4134 1275 3809 
L 1275 3500 
L 2222 3500 
L 2222 3053 
L 1275 3053 
L 1275 0 
L 697 0 
L 697 3053 
L 147 3053 
L 147 3500 
L 697 3500 
L 697 3744 
Q 697 4328 969 4595 
Q 1241 4863 1831 4863 
L 2375 4863 
z
" transform="scale(0.015625)"/>
      <path id="DejaVuSans-67" d="M 2906 1791 
Q 2906 2416 2648 2759 
Q 2391 3103 1925 3103 
Q 1463 3103 1205 2759 
Q 947 2416 947 1791 
Q 947 1169 1205 825 
Q 1463 481 1925 481 
Q 2391 481 2648 825 
Q 2906 1169 2906 1791 
z
M 3481 434 
Q 3481 -459 3084 -895 
Q 2688 -1331 1869 -1331 
Q 1566 -1331 1297 -1286 
Q 1028 -1241 775 -1147 
L 775 -588 
Q 1028 -725 1275 -790 
Q 1522 -856 1778 -856 
Q 2344 -856 2625 -561 
Q 2906 -266 2906 331 
L 2906 616 
Q 2728 306 2450 153 
Q 2172 0 1784 0 
Q 1141 0 747 490 
Q 353 981 353 1791 
Q 353 2603 747 3093 
Q 1141 3584 1784 3584 
Q 2172 3584 2450 3431 
Q 2728 3278 2906 2969 
L 2906 3500 
L 3481 3500 
L 3481 434 
z
" transform="scale(0.015625)"/>
      <path id="DejaVuSans-39" d="M 703 97 
L 703 672 
Q 941 559 1184 500 
Q 1428 441 1663 441 
Q 2288 441 2617 861 
Q 2947 1281 2994 2138 
Q 2813 1869 2534 1725 
Q 2256 1581 1919 1581 
Q 1219 1581 811 2004 
Q 403 2428 403 3163 
Q 403 3881 828 4315 
Q 1253 4750 1959 4750 
Q 2769 4750 3195 4129 
Q 3622 3509 3622 2328 
Q 3622 1225 3098 567 
Q 2575 -91 1691 -91 
Q 1453 -91 1209 -44 
Q 966 3 703 97 
z
M 1959 2075 
Q 2384 2075 2632 2365 
Q 2881 2656 2881 3163 
Q 2881 3666 2632 3958 
Q 2384 4250 1959 4250 
Q 1534 4250 1286 3958 
Q 1038 3666 1038 3163 
Q 1038 2656 1286 2365 
Q 1534 2075 1959 2075 
z
" transform="scale(0.015625)"/>
     </defs>
     <use xlink:href="#DejaVuSans-66"/>
     <use xlink:href="#DejaVuSans-69" x="35.205078"/>
     <use xlink:href="#DejaVuSans-67" x="62.988281"/>
     <use xlink:href="#DejaVuSans-31" x="126.464844"/>
     <use xlink:href="#DejaVuSans-39" x="190.087891"/>
    </g>
   </g>
   <g id="legend_1">
    <g id="patch_7">
     <path d="M 64.6 154.16575 
L 201.7625 154.16575 
Q 203.7625 154.16575 203.7625 152.16575 
L 203.7625 48.472 
Q 203.7625 46.472 201.7625 46.472 
L 64.6 46.472 
Q 62.6 46.472 62.6 48.472 
L 62.6 152.16575 
Q 62.6 154.16575 64.6 154.16575 
z
" style="fill: #ffffff; opacity: 0.8; stroke: #cccccc; stroke-linejoin: miter"/>
    </g>
    <g id="line2d_24">
     <path d="M 66.6 54.570438 
L 76.6 54.570438 
L 86.6 54.570438 
" style="fill: none; stroke: #000000; stroke-width: 1.5; stroke-linecap: square"/>
    </g>
    <g id="text_20">
     <!-- mkl_real_time -->
     <g transform="translate(94.6 58.070438) scale(0.1 -0.1)">
      <defs>
       <path id="DejaVuSans-6b" d="M 581 4863 
L 1159 4863 
L 1159 1991 
L 2875 3500 
L 3609 3500 
L 1753 1863 
L 3688 0 
L 2938 0 
L 1159 1709 
L 1159 0 
L 581 0 
L 581 4863 
z
" transform="scale(0.015625)"/>
       <path id="DejaVuSans-5f" d="M 3263 -1063 
L 3263 -1509 
L -63 -1509 
L -63 -1063 
L 3263 -1063 
z
" transform="scale(0.015625)"/>
       <path id="DejaVuSans-72" d="M 2631 2963 
Q 2534 3019 2420 3045 
Q 2306 3072 2169 3072 
Q 1681 3072 1420 2755 
Q 1159 2438 1159 1844 
L 1159 0 
L 581 0 
L 581 3500 
L 1159 3500 
L 1159 2956 
Q 1341 3275 1631 3429 
Q 1922 3584 2338 3584 
Q 2397 3584 2469 3576 
Q 2541 3569 2628 3553 
L 2631 2963 
z
" transform="scale(0.015625)"/>
       <path id="DejaVuSans-74" d="M 1172 4494 
L 1172 3500 
L 2356 3500 
L 2356 3053 
L 1172 3053 
L 1172 1153 
Q 1172 725 1289 603 
Q 1406 481 1766 481 
L 2356 481 
L 2356 0 
L 1766 0 
Q 1100 0 847 248 
Q 594 497 594 1153 
L 594 3053 
L 172 3053 
L 172 3500 
L 594 3500 
L 594 4494 
L 1172 4494 
z
" transform="scale(0.015625)"/>
      </defs>
      <use xlink:href="#DejaVuSans-6d"/>
      <use xlink:href="#DejaVuSans-6b" x="97.412109"/>
      <use xlink:href="#DejaVuSans-6c" x="155.322266"/>
      <use xlink:href="#DejaVuSans-5f" x="183.105469"/>
      <use xlink:href="#DejaVuSans-72" x="233.105469"/>
      <use xlink:href="#DejaVuSans-65" x="271.96875"/>
      <use xlink:href="#DejaVuSans-61" x="333.492188"/>
      <use xlink:href="#DejaVuSans-6c" x="394.771484"/>
      <use xlink:href="#DejaVuSans-5f" x="422.554688"/>
      <use xlink:href="#DejaVuSans-74" x="472.554688"/>
      <use xlink:href="#DejaVuSans-69" x="511.763672"/>
      <use xlink:href="#DejaVuSans-6d" x="539.546875"/>
      <use xlink:href="#DejaVuSans-65" x="636.958984"/>
     </g>
    </g>
    <g id="line2d_25">
     <path d="M 66.6 69.526688 
L 76.6 69.526688 
L 86.6 69.526688 
" style="fill: none; stroke: #008000; stroke-width: 1.5; stroke-linecap: square"/>
    </g>
    <g id="text_21">
     <!-- gsl_real_time -->
     <g transform="translate(94.6 73.026688) scale(0.1 -0.1)">
      <use xlink:href="#DejaVuSans-67"/>
      <use xlink:href="#DejaVuSans-73" x="63.476562"/>
      <use xlink:href="#DejaVuSans-6c" x="115.576172"/>
      <use xlink:href="#DejaVuSans-5f" x="143.359375"/>
      <use xlink:href="#DejaVuSans-72" x="193.359375"/>
      <use xlink:href="#DejaVuSans-65" x="232.222656"/>
      <use xlink:href="#DejaVuSans-61" x="293.746094"/>
      <use xlink:href="#DejaVuSans-6c" x="355.025391"/>
      <use xlink:href="#DejaVuSans-5f" x="382.808594"/>
      <use xlink:href="#DejaVuSans-74" x="432.808594"/>
      <use xlink:href="#DejaVuSans-69" x="472.017578"/>
      <use xlink:href="#DejaVuSans-6d" x="499.800781"/>
      <use xlink:href="#DejaVuSans-65" x="597.212891"/>
     </g>
    </g>
    <g id="line2d_26">
     <path d="M 66.6 84.482938 
L 76.6 84.482938 
L 86.6 84.482938 
" style="fill: none; stroke: #ffd700; stroke-width: 1.5; stroke-linecap: square"/>
    </g>
    <g id="text_22">
     <!-- dot_blas_real_time -->
     <g transform="translate(94.6 87.982938) scale(0.1 -0.1)">
      <defs>
       <path id="DejaVuSans-64" d="M 2906 2969 
L 2906 4863 
L 3481 4863 
L 3481 0 
L 2906 0 
L 2906 525 
Q 2725 213 2448 61 
Q 2172 -91 1784 -91 
Q 1150 -91 751 415 
Q 353 922 353 1747 
Q 353 2572 751 3078 
Q 1150 3584 1784 3584 
Q 2172 3584 2448 3432 
Q 2725 3281 2906 2969 
z
M 947 1747 
Q 947 1113 1208 752 
Q 1469 391 1925 391 
Q 2381 391 2643 752 
Q 2906 1113 2906 1747 
Q 2906 2381 2643 2742 
Q 2381 3103 1925 3103 
Q 1469 3103 1208 2742 
Q 947 2381 947 1747 
z
" transform="scale(0.015625)"/>
       <path id="DejaVuSans-62" d="M 3116 1747 
Q 3116 2381 2855 2742 
Q 2594 3103 2138 3103 
Q 1681 3103 1420 2742 
Q 1159 2381 1159 1747 
Q 1159 1113 1420 752 
Q 1681 391 2138 391 
Q 2594 391 2855 752 
Q 3116 1113 3116 1747 
z
M 1159 2969 
Q 1341 3281 1617 3432 
Q 1894 3584 2278 3584 
Q 2916 3584 3314 3078 
Q 3713 2572 3713 1747 
Q 3713 922 3314 415 
Q 2916 -91 2278 -91 
Q 1894 -91 1617 61 
Q 1341 213 1159 525 
L 1159 0 
L 581 0 
L 581 4863 
L 1159 4863 
L 1159 2969 
z
" transform="scale(0.015625)"/>
      </defs>
      <use xlink:href="#DejaVuSans-64"/>
      <use xlink:href="#DejaVuSans-6f" x="63.476562"/>
      <use xlink:href="#DejaVuSans-74" x="124.658203"/>
      <use xlink:href="#DejaVuSans-5f" x="163.867188"/>
      <use xlink:href="#DejaVuSans-62" x="213.867188"/>
      <use xlink:href="#DejaVuSans-6c" x="277.34375"/>
      <use xlink:href="#DejaVuSans-61" x="305.126953"/>
      <use xlink:href="#DejaVuSans-73" x="366.40625"/>
      <use xlink:href="#DejaVuSans-5f" x="418.505859"/>
      <use xlink:href="#DejaVuSans-72" x="468.505859"/>
      <use xlink:href="#DejaVuSans-65" x="507.369141"/>
      <use xlink:href="#DejaVuSans-61" x="568.892578"/>
      <use xlink:href="#DejaVuSans-6c" x="630.171875"/>
      <use xlink:href="#DejaVuSans-5f" x="657.955078"/>
      <use xlink:href="#DejaVuSans-74" x="707.955078"/>
      <use xlink:href="#DejaVuSans-69" x="747.164062"/>
      <use xlink:href="#DejaVuSans-6d" x="774.947266"/>
      <use xlink:href="#DejaVuSans-65" x="872.359375"/>
     </g>
    </g>
    <g id="line2d_27">
     <path d="M 66.6 99.439188 
L 76.6 99.439188 
L 86.6 99.439188 
" style="fill: none; stroke: #0000ff; stroke-width: 1.5; stroke-linecap: square"/>
    </g>
    <g id="text_23">
     <!-- taco_real_time -->
     <g transform="translate(94.6 102.939188) scale(0.1 -0.1)">
      <defs>
       <path id="DejaVuSans-63" d="M 3122 3366 
L 3122 2828 
Q 2878 2963 2633 3030 
Q 2388 3097 2138 3097 
Q 1578 3097 1268 2742 
Q 959 2388 959 1747 
Q 959 1106 1268 751 
Q 1578 397 2138 397 
Q 2388 397 2633 464 
Q 2878 531 3122 666 
L 3122 134 
Q 2881 22 2623 -34 
Q 2366 -91 2075 -91 
Q 1284 -91 818 406 
Q 353 903 353 1747 
Q 353 2603 823 3093 
Q 1294 3584 2113 3584 
Q 2378 3584 2631 3529 
Q 2884 3475 3122 3366 
z
" transform="scale(0.015625)"/>
      </defs>
      <use xlink:href="#DejaVuSans-74"/>
      <use xlink:href="#DejaVuSans-61" x="39.208984"/>
      <use xlink:href="#DejaVuSans-63" x="100.488281"/>
      <use xlink:href="#DejaVuSans-6f" x="155.46875"/>
      <use xlink:href="#DejaVuSans-5f" x="216.650391"/>
      <use xlink:href="#DejaVuSans-72" x="266.650391"/>
      <use xlink:href="#DejaVuSans-65" x="305.513672"/>
      <use xlink:href="#DejaVuSans-61" x="367.037109"/>
      <use xlink:href="#DejaVuSans-6c" x="428.316406"/>
      <use xlink:href="#DejaVuSans-5f" x="456.099609"/>
      <use xlink:href="#DejaVuSans-74" x="506.099609"/>
      <use xlink:href="#DejaVuSans-69" x="545.308594"/>
      <use xlink:href="#DejaVuSans-6d" x="573.091797"/>
      <use xlink:href="#DejaVuSans-65" x="670.503906"/>
     </g>
    </g>
    <g id="line2d_28">
     <path d="M 66.6 114.395438 
L 76.6 114.395438 
L 86.6 114.395438 
" style="fill: none; stroke: #808000; stroke-width: 1.5; stroke-linecap: square"/>
    </g>
    <g id="text_24">
     <!-- tblis_real_time -->
     <g transform="translate(94.6 117.895438) scale(0.1 -0.1)">
      <use xlink:href="#DejaVuSans-74"/>
      <use xlink:href="#DejaVuSans-62" x="39.208984"/>
      <use xlink:href="#DejaVuSans-6c" x="102.685547"/>
      <use xlink:href="#DejaVuSans-69" x="130.46875"/>
      <use xlink:href="#DejaVuSans-73" x="158.251953"/>
      <use xlink:href="#DejaVuSans-5f" x="210.351562"/>
      <use xlink:href="#DejaVuSans-72" x="260.351562"/>
      <use xlink:href="#DejaVuSans-65" x="299.214844"/>
      <use xlink:href="#DejaVuSans-61" x="360.738281"/>
      <use xlink:href="#DejaVuSans-6c" x="422.017578"/>
      <use xlink:href="#DejaVuSans-5f" x="449.800781"/>
      <use xlink:href="#DejaVuSans-74" x="499.800781"/>
      <use xlink:href="#DejaVuSans-69" x="539.009766"/>
      <use xlink:href="#DejaVuSans-6d" x="566.792969"/>
      <use xlink:href="#DejaVuSans-65" x="664.205078"/>
     </g>
    </g>
    <g id="line2d_29">
     <path d="M 66.6 129.351688 
L 76.6 129.351688 
L 86.6 129.351688 
" style="fill: none; stroke: #800080; stroke-width: 1.5; stroke-linecap: square"/>
    </g>
    <g id="text_25">
     <!-- gemv_blas_real_time -->
     <g transform="translate(94.6 132.851688) scale(0.1 -0.1)">
      <defs>
       <path id="DejaVuSans-76" d="M 191 3500 
L 800 3500 
L 1894 563 
L 2988 3500 
L 3597 3500 
L 2284 0 
L 1503 0 
L 191 3500 
z
" transform="scale(0.015625)"/>
      </defs>
      <use xlink:href="#DejaVuSans-67"/>
      <use xlink:href="#DejaVuSans-65" x="63.476562"/>
      <use xlink:href="#DejaVuSans-6d" x="125"/>
      <use xlink:href="#DejaVuSans-76" x="222.412109"/>
      <use xlink:href="#DejaVuSans-5f" x="281.591797"/>
      <use xlink:href="#DejaVuSans-62" x="331.591797"/>
      <use xlink:href="#DejaVuSans-6c" x="395.068359"/>
      <use xlink:href="#DejaVuSans-61" x="422.851562"/>
      <use xlink:href="#DejaVuSans-73" x="484.130859"/>
      <use xlink:href="#DejaVuSans-5f" x="536.230469"/>
      <use xlink:href="#DejaVuSans-72" x="586.230469"/>
      <use xlink:href="#DejaVuSans-65" x="625.09375"/>
      <use xlink:href="#DejaVuSans-61" x="686.617188"/>
      <use xlink:href="#DejaVuSans-6c" x="747.896484"/>
      <use xlink:href="#DejaVuSans-5f" x="775.679688"/>
      <use xlink:href="#DejaVuSans-74" x="825.679688"/>
      <use xlink:href="#DejaVuSans-69" x="864.888672"/>
      <use xlink:href="#DejaVuSans-6d" x="892.671875"/>
      <use xlink:href="#DejaVuSans-65" x="990.083984"/>
     </g>
    </g>
    <g id="line2d_30">
     <path d="M 66.6 144.307938 
L 76.6 144.307938 
L 86.6 144.307938 
" style="fill: none; stroke: #ff0000; stroke-width: 1.5; stroke-linecap: square"/>
    </g>
    <g id="text_26">
     <!-- blas_real_time -->
     <g transform="translate(94.6 147.807938) scale(0.1 -0.1)">
      <use xlink:href="#DejaVuSans-62"/>
      <use xlink:href="#DejaVuSans-6c" x="63.476562"/>
      <use xlink:href="#DejaVuSans-61" x="91.259766"/>
      <use xlink:href="#DejaVuSans-73" x="152.539062"/>
      <use xlink:href="#DejaVuSans-5f" x="204.638672"/>
      <use xlink:href="#DejaVuSans-72" x="254.638672"/>
      <use xlink:href="#DejaVuSans-65" x="293.501953"/>
      <use xlink:href="#DejaVuSans-61" x="355.025391"/>
      <use xlink:href="#DejaVuSans-6c" x="416.304688"/>
      <use xlink:href="#DejaVuSans-5f" x="444.087891"/>
      <use xlink:href="#DejaVuSans-74" x="494.087891"/>
      <use xlink:href="#DejaVuSans-69" x="533.296875"/>
      <use xlink:href="#DejaVuSans-6d" x="561.080078"/>
      <use xlink:href="#DejaVuSans-65" x="658.492188"/>
     </g>
    </g>
   </g>
  </g>
 </g>
 <defs>
  <clipPath id="p083066cb33">
   <rect x="57.6" y="41.472" width="357.12" height="266.112"/>
  </clipPath>
 </defs>
</svg>
