<?xml version="1.0" encoding="utf-8" standalone="no"?>
<!DOCTYPE svg PUBLIC "-//W3C//DTD SVG 1.1//EN"
  "http://www.w3.org/Graphics/SVG/1.1/DTD/svg11.dtd">
<svg xmlns:xlink="http://www.w3.org/1999/xlink" width="460.8pt" height="345.6pt" viewBox="0 0 460.8 345.6" xmlns="http://www.w3.org/2000/svg" version="1.1">
 <metadata>
  <rdf:RDF xmlns:dc="http://purl.org/dc/elements/1.1/" xmlns:cc="http://creativecommons.org/ns#" xmlns:rdf="http://www.w3.org/1999/02/22-rdf-syntax-ns#">
   <cc:Work>
    <dc:type rdf:resource="http://purl.org/dc/dcmitype/StillImage"/>
    <dc:date>2023-03-06T21:54:52.517215</dc:date>
    <dc:format>image/svg+xml</dc:format>
    <dc:creator>
     <cc:Agent>
      <dc:title>Matplotlib v3.7.1, https://matplotlib.org/</dc:title>
     </cc:Agent>
    </dc:creator>
   </cc:Work>
  </rdf:RDF>
 </metadata>
 <defs>
  <style type="text/css">*{stroke-linejoin: round; stroke-linecap: butt}</style>
 </defs>
 <g id="figure_1">
  <g id="patch_1">
   <path d="M 0 345.6 
L 460.8 345.6 
L 460.8 0 
L 0 0 
z
" style="fill: #ffffff"/>
  </g>
  <g id="axes_1">
   <g id="patch_2">
    <path d="M 57.6 307.584 
L 414.72 307.584 
L 414.72 41.472 
L 57.6 41.472 
z
" style="fill: #ffffff"/>
   </g>
   <g id="matplotlib.axis_1">
    <g id="xtick_1">
     <g id="line2d_1">
      <defs>
       <path id="m590ae36e41" d="M 0 0 
L 0 3.5 
" style="stroke: #000000; stroke-width: 0.8"/>
      </defs>
      <g>
       <use xlink:href="#m590ae36e41" x="66.997895" y="307.584" style="stroke: #000000; stroke-width: 0.8"/>
      </g>
     </g>
     <g id="text_1">
      <!-- 0 -->
      <g transform="translate(63.816645 322.182437) scale(0.1 -0.1)">
       <defs>
        <path id="DejaVuSans-30" d="M 2034 4250 
Q 1547 4250 1301 3770 
Q 1056 3291 1056 2328 
Q 1056 1369 1301 889 
Q 1547 409 2034 409 
Q 2525 409 2770 889 
Q 3016 1369 3016 2328 
Q 3016 3291 2770 3770 
Q 2525 4250 2034 4250 
z
M 2034 4750 
Q 2819 4750 3233 4129 
Q 3647 3509 3647 2328 
Q 3647 1150 3233 529 
Q 2819 -91 2034 -91 
Q 1250 -91 836 529 
Q 422 1150 422 2328 
Q 422 3509 836 4129 
Q 1250 4750 2034 4750 
z
" transform="scale(0.015625)"/>
       </defs>
       <use xlink:href="#DejaVuSans-30"/>
      </g>
     </g>
    </g>
    <g id="xtick_2">
     <g id="line2d_2">
      <g>
       <use xlink:href="#m590ae36e41" x="135.34622" y="307.584" style="stroke: #000000; stroke-width: 0.8"/>
      </g>
     </g>
     <g id="text_2">
      <!-- 1000 -->
      <g transform="translate(122.62122 322.182437) scale(0.1 -0.1)">
       <defs>
        <path id="DejaVuSans-31" d="M 794 531 
L 1825 531 
L 1825 4091 
L 703 3866 
L 703 4441 
L 1819 4666 
L 2450 4666 
L 2450 531 
L 3481 531 
L 3481 0 
L 794 0 
L 794 531 
z
" transform="scale(0.015625)"/>
       </defs>
       <use xlink:href="#DejaVuSans-31"/>
       <use xlink:href="#DejaVuSans-30" x="63.623047"/>
       <use xlink:href="#DejaVuSans-30" x="127.246094"/>
       <use xlink:href="#DejaVuSans-30" x="190.869141"/>
      </g>
     </g>
    </g>
    <g id="xtick_3">
     <g id="line2d_3">
      <g>
       <use xlink:href="#m590ae36e41" x="203.694545" y="307.584" style="stroke: #000000; stroke-width: 0.8"/>
      </g>
     </g>
     <g id="text_3">
      <!-- 2000 -->
      <g transform="translate(190.969545 322.182437) scale(0.1 -0.1)">
       <defs>
        <path id="DejaVuSans-32" d="M 1228 531 
L 3431 531 
L 3431 0 
L 469 0 
L 469 531 
Q 828 903 1448 1529 
Q 2069 2156 2228 2338 
Q 2531 2678 2651 2914 
Q 2772 3150 2772 3378 
Q 2772 3750 2511 3984 
Q 2250 4219 1831 4219 
Q 1534 4219 1204 4116 
Q 875 4013 500 3803 
L 500 4441 
Q 881 4594 1212 4672 
Q 1544 4750 1819 4750 
Q 2544 4750 2975 4387 
Q 3406 4025 3406 3419 
Q 3406 3131 3298 2873 
Q 3191 2616 2906 2266 
Q 2828 2175 2409 1742 
Q 1991 1309 1228 531 
z
" transform="scale(0.015625)"/>
       </defs>
       <use xlink:href="#DejaVuSans-32"/>
       <use xlink:href="#DejaVuSans-30" x="63.623047"/>
       <use xlink:href="#DejaVuSans-30" x="127.246094"/>
       <use xlink:href="#DejaVuSans-30" x="190.869141"/>
      </g>
     </g>
    </g>
    <g id="xtick_4">
     <g id="line2d_4">
      <g>
       <use xlink:href="#m590ae36e41" x="272.042871" y="307.584" style="stroke: #000000; stroke-width: 0.8"/>
      </g>
     </g>
     <g id="text_4">
      <!-- 3000 -->
      <g transform="translate(259.317871 322.182437) scale(0.1 -0.1)">
       <defs>
        <path id="DejaVuSans-33" d="M 2597 2516 
Q 3050 2419 3304 2112 
Q 3559 1806 3559 1356 
Q 3559 666 3084 287 
Q 2609 -91 1734 -91 
Q 1441 -91 1130 -33 
Q 819 25 488 141 
L 488 750 
Q 750 597 1062 519 
Q 1375 441 1716 441 
Q 2309 441 2620 675 
Q 2931 909 2931 1356 
Q 2931 1769 2642 2001 
Q 2353 2234 1838 2234 
L 1294 2234 
L 1294 2753 
L 1863 2753 
Q 2328 2753 2575 2939 
Q 2822 3125 2822 3475 
Q 2822 3834 2567 4026 
Q 2313 4219 1838 4219 
Q 1578 4219 1281 4162 
Q 984 4106 628 3988 
L 628 4550 
Q 988 4650 1302 4700 
Q 1616 4750 1894 4750 
Q 2613 4750 3031 4423 
Q 3450 4097 3450 3541 
Q 3450 3153 3228 2886 
Q 3006 2619 2597 2516 
z
" transform="scale(0.015625)"/>
       </defs>
       <use xlink:href="#DejaVuSans-33"/>
       <use xlink:href="#DejaVuSans-30" x="63.623047"/>
       <use xlink:href="#DejaVuSans-30" x="127.246094"/>
       <use xlink:href="#DejaVuSans-30" x="190.869141"/>
      </g>
     </g>
    </g>
    <g id="xtick_5">
     <g id="line2d_5">
      <g>
       <use xlink:href="#m590ae36e41" x="340.391196" y="307.584" style="stroke: #000000; stroke-width: 0.8"/>
      </g>
     </g>
     <g id="text_5">
      <!-- 4000 -->
      <g transform="translate(327.666196 322.182437) scale(0.1 -0.1)">
       <defs>
        <path id="DejaVuSans-34" d="M 2419 4116 
L 825 1625 
L 2419 1625 
L 2419 4116 
z
M 2253 4666 
L 3047 4666 
L 3047 1625 
L 3713 1625 
L 3713 1100 
L 3047 1100 
L 3047 0 
L 2419 0 
L 2419 1100 
L 313 1100 
L 313 1709 
L 2253 4666 
z
" transform="scale(0.015625)"/>
       </defs>
       <use xlink:href="#DejaVuSans-34"/>
       <use xlink:href="#DejaVuSans-30" x="63.623047"/>
       <use xlink:href="#DejaVuSans-30" x="127.246094"/>
       <use xlink:href="#DejaVuSans-30" x="190.869141"/>
      </g>
     </g>
    </g>
    <g id="xtick_6">
     <g id="line2d_6">
      <g>
       <use xlink:href="#m590ae36e41" x="408.739522" y="307.584" style="stroke: #000000; stroke-width: 0.8"/>
      </g>
     </g>
     <g id="text_6">
      <!-- 5000 -->
      <g transform="translate(396.014522 322.182437) scale(0.1 -0.1)">
       <defs>
        <path id="DejaVuSans-35" d="M 691 4666 
L 3169 4666 
L 3169 4134 
L 1269 4134 
L 1269 2991 
Q 1406 3038 1543 3061 
Q 1681 3084 1819 3084 
Q 2600 3084 3056 2656 
Q 3513 2228 3513 1497 
Q 3513 744 3044 326 
Q 2575 -91 1722 -91 
Q 1428 -91 1123 -41 
Q 819 9 494 109 
L 494 744 
Q 775 591 1075 516 
Q 1375 441 1709 441 
Q 2250 441 2565 725 
Q 2881 1009 2881 1497 
Q 2881 1984 2565 2268 
Q 2250 2553 1709 2553 
Q 1456 2553 1204 2497 
Q 953 2441 691 2322 
L 691 4666 
z
" transform="scale(0.015625)"/>
       </defs>
       <use xlink:href="#DejaVuSans-35"/>
       <use xlink:href="#DejaVuSans-30" x="63.623047"/>
       <use xlink:href="#DejaVuSans-30" x="127.246094"/>
       <use xlink:href="#DejaVuSans-30" x="190.869141"/>
      </g>
     </g>
    </g>
    <g id="text_7">
     <!-- Dimension -->
     <g transform="translate(209.583438 335.860562) scale(0.1 -0.1)">
      <defs>
       <path id="DejaVuSans-44" d="M 1259 4147 
L 1259 519 
L 2022 519 
Q 2988 519 3436 956 
Q 3884 1394 3884 2338 
Q 3884 3275 3436 3711 
Q 2988 4147 2022 4147 
L 1259 4147 
z
M 628 4666 
L 1925 4666 
Q 3281 4666 3915 4102 
Q 4550 3538 4550 2338 
Q 4550 1131 3912 565 
Q 3275 0 1925 0 
L 628 0 
L 628 4666 
z
" transform="scale(0.015625)"/>
       <path id="DejaVuSans-69" d="M 603 3500 
L 1178 3500 
L 1178 0 
L 603 0 
L 603 3500 
z
M 603 4863 
L 1178 4863 
L 1178 4134 
L 603 4134 
L 603 4863 
z
" transform="scale(0.015625)"/>
       <path id="DejaVuSans-6d" d="M 3328 2828 
Q 3544 3216 3844 3400 
Q 4144 3584 4550 3584 
Q 5097 3584 5394 3201 
Q 5691 2819 5691 2113 
L 5691 0 
L 5113 0 
L 5113 2094 
Q 5113 2597 4934 2840 
Q 4756 3084 4391 3084 
Q 3944 3084 3684 2787 
Q 3425 2491 3425 1978 
L 3425 0 
L 2847 0 
L 2847 2094 
Q 2847 2600 2669 2842 
Q 2491 3084 2119 3084 
Q 1678 3084 1418 2786 
Q 1159 2488 1159 1978 
L 1159 0 
L 581 0 
L 581 3500 
L 1159 3500 
L 1159 2956 
Q 1356 3278 1631 3431 
Q 1906 3584 2284 3584 
Q 2666 3584 2933 3390 
Q 3200 3197 3328 2828 
z
" transform="scale(0.015625)"/>
       <path id="DejaVuSans-65" d="M 3597 1894 
L 3597 1613 
L 953 1613 
Q 991 1019 1311 708 
Q 1631 397 2203 397 
Q 2534 397 2845 478 
Q 3156 559 3463 722 
L 3463 178 
Q 3153 47 2828 -22 
Q 2503 -91 2169 -91 
Q 1331 -91 842 396 
Q 353 884 353 1716 
Q 353 2575 817 3079 
Q 1281 3584 2069 3584 
Q 2775 3584 3186 3129 
Q 3597 2675 3597 1894 
z
M 3022 2063 
Q 3016 2534 2758 2815 
Q 2500 3097 2075 3097 
Q 1594 3097 1305 2825 
Q 1016 2553 972 2059 
L 3022 2063 
z
" transform="scale(0.015625)"/>
       <path id="DejaVuSans-6e" d="M 3513 2113 
L 3513 0 
L 2938 0 
L 2938 2094 
Q 2938 2591 2744 2837 
Q 2550 3084 2163 3084 
Q 1697 3084 1428 2787 
Q 1159 2491 1159 1978 
L 1159 0 
L 581 0 
L 581 3500 
L 1159 3500 
L 1159 2956 
Q 1366 3272 1645 3428 
Q 1925 3584 2291 3584 
Q 2894 3584 3203 3211 
Q 3513 2838 3513 2113 
z
" transform="scale(0.015625)"/>
       <path id="DejaVuSans-73" d="M 2834 3397 
L 2834 2853 
Q 2591 2978 2328 3040 
Q 2066 3103 1784 3103 
Q 1356 3103 1142 2972 
Q 928 2841 928 2578 
Q 928 2378 1081 2264 
Q 1234 2150 1697 2047 
L 1894 2003 
Q 2506 1872 2764 1633 
Q 3022 1394 3022 966 
Q 3022 478 2636 193 
Q 2250 -91 1575 -91 
Q 1294 -91 989 -36 
Q 684 19 347 128 
L 347 722 
Q 666 556 975 473 
Q 1284 391 1588 391 
Q 1994 391 2212 530 
Q 2431 669 2431 922 
Q 2431 1156 2273 1281 
Q 2116 1406 1581 1522 
L 1381 1569 
Q 847 1681 609 1914 
Q 372 2147 372 2553 
Q 372 3047 722 3315 
Q 1072 3584 1716 3584 
Q 2034 3584 2315 3537 
Q 2597 3491 2834 3397 
z
" transform="scale(0.015625)"/>
       <path id="DejaVuSans-6f" d="M 1959 3097 
Q 1497 3097 1228 2736 
Q 959 2375 959 1747 
Q 959 1119 1226 758 
Q 1494 397 1959 397 
Q 2419 397 2687 759 
Q 2956 1122 2956 1747 
Q 2956 2369 2687 2733 
Q 2419 3097 1959 3097 
z
M 1959 3584 
Q 2709 3584 3137 3096 
Q 3566 2609 3566 1747 
Q 3566 888 3137 398 
Q 2709 -91 1959 -91 
Q 1206 -91 779 398 
Q 353 888 353 1747 
Q 353 2609 779 3096 
Q 1206 3584 1959 3584 
z
" transform="scale(0.015625)"/>
      </defs>
      <use xlink:href="#DejaVuSans-44"/>
      <use xlink:href="#DejaVuSans-69" x="77.001953"/>
      <use xlink:href="#DejaVuSans-6d" x="104.785156"/>
      <use xlink:href="#DejaVuSans-65" x="202.197266"/>
      <use xlink:href="#DejaVuSans-6e" x="263.720703"/>
      <use xlink:href="#DejaVuSans-73" x="327.099609"/>
      <use xlink:href="#DejaVuSans-69" x="379.199219"/>
      <use xlink:href="#DejaVuSans-6f" x="406.982422"/>
      <use xlink:href="#DejaVuSans-6e" x="468.164062"/>
     </g>
    </g>
   </g>
   <g id="matplotlib.axis_2">
    <g id="ytick_1">
     <g id="line2d_7">
      <defs>
       <path id="m8d39d5e624" d="M 0 0 
L -3.5 0 
" style="stroke: #000000; stroke-width: 0.8"/>
      </defs>
      <g>
       <use xlink:href="#m8d39d5e624" x="57.6" y="295.725418" style="stroke: #000000; stroke-width: 0.8"/>
      </g>
     </g>
     <g id="text_8">
      <!-- 0.0 -->
      <g transform="translate(34.696875 299.524636) scale(0.1 -0.1)">
       <defs>
        <path id="DejaVuSans-2e" d="M 684 794 
L 1344 794 
L 1344 0 
L 684 0 
L 684 794 
z
" transform="scale(0.015625)"/>
       </defs>
       <use xlink:href="#DejaVuSans-30"/>
       <use xlink:href="#DejaVuSans-2e" x="63.623047"/>
       <use xlink:href="#DejaVuSans-30" x="95.410156"/>
      </g>
     </g>
    </g>
    <g id="ytick_2">
     <g id="line2d_8">
      <g>
       <use xlink:href="#m8d39d5e624" x="57.6" y="258.955267" style="stroke: #000000; stroke-width: 0.8"/>
      </g>
     </g>
     <g id="text_9">
      <!-- 2.5 -->
      <g transform="translate(34.696875 262.754486) scale(0.1 -0.1)">
       <use xlink:href="#DejaVuSans-32"/>
       <use xlink:href="#DejaVuSans-2e" x="63.623047"/>
       <use xlink:href="#DejaVuSans-35" x="95.410156"/>
      </g>
     </g>
    </g>
    <g id="ytick_3">
     <g id="line2d_9">
      <g>
       <use xlink:href="#m8d39d5e624" x="57.6" y="222.185116" style="stroke: #000000; stroke-width: 0.8"/>
      </g>
     </g>
     <g id="text_10">
      <!-- 5.0 -->
      <g transform="translate(34.696875 225.984335) scale(0.1 -0.1)">
       <use xlink:href="#DejaVuSans-35"/>
       <use xlink:href="#DejaVuSans-2e" x="63.623047"/>
       <use xlink:href="#DejaVuSans-30" x="95.410156"/>
      </g>
     </g>
    </g>
    <g id="ytick_4">
     <g id="line2d_10">
      <g>
       <use xlink:href="#m8d39d5e624" x="57.6" y="185.414965" style="stroke: #000000; stroke-width: 0.8"/>
      </g>
     </g>
     <g id="text_11">
      <!-- 7.5 -->
      <g transform="translate(34.696875 189.214184) scale(0.1 -0.1)">
       <defs>
        <path id="DejaVuSans-37" d="M 525 4666 
L 3525 4666 
L 3525 4397 
L 1831 0 
L 1172 0 
L 2766 4134 
L 525 4134 
L 525 4666 
z
" transform="scale(0.015625)"/>
       </defs>
       <use xlink:href="#DejaVuSans-37"/>
       <use xlink:href="#DejaVuSans-2e" x="63.623047"/>
       <use xlink:href="#DejaVuSans-35" x="95.410156"/>
      </g>
     </g>
    </g>
    <g id="ytick_5">
     <g id="line2d_11">
      <g>
       <use xlink:href="#m8d39d5e624" x="57.6" y="148.644814" style="stroke: #000000; stroke-width: 0.8"/>
      </g>
     </g>
     <g id="text_12">
      <!-- 10.0 -->
      <g transform="translate(28.334375 152.444033) scale(0.1 -0.1)">
       <use xlink:href="#DejaVuSans-31"/>
       <use xlink:href="#DejaVuSans-30" x="63.623047"/>
       <use xlink:href="#DejaVuSans-2e" x="127.246094"/>
       <use xlink:href="#DejaVuSans-30" x="159.033203"/>
      </g>
     </g>
    </g>
    <g id="ytick_6">
     <g id="line2d_12">
      <g>
       <use xlink:href="#m8d39d5e624" x="57.6" y="111.874664" style="stroke: #000000; stroke-width: 0.8"/>
      </g>
     </g>
     <g id="text_13">
      <!-- 12.5 -->
      <g transform="translate(28.334375 115.673882) scale(0.1 -0.1)">
       <use xlink:href="#DejaVuSans-31"/>
       <use xlink:href="#DejaVuSans-32" x="63.623047"/>
       <use xlink:href="#DejaVuSans-2e" x="127.246094"/>
       <use xlink:href="#DejaVuSans-35" x="159.033203"/>
      </g>
     </g>
    </g>
    <g id="ytick_7">
     <g id="line2d_13">
      <g>
       <use xlink:href="#m8d39d5e624" x="57.6" y="75.104513" style="stroke: #000000; stroke-width: 0.8"/>
      </g>
     </g>
     <g id="text_14">
      <!-- 15.0 -->
      <g transform="translate(28.334375 78.903731) scale(0.1 -0.1)">
       <use xlink:href="#DejaVuSans-31"/>
       <use xlink:href="#DejaVuSans-35" x="63.623047"/>
       <use xlink:href="#DejaVuSans-2e" x="127.246094"/>
       <use xlink:href="#DejaVuSans-30" x="159.033203"/>
      </g>
     </g>
    </g>
    <g id="text_15">
     <!-- Real Time (ms) -->
     <g transform="translate(22.254687 212.095188) rotate(-90) scale(0.1 -0.1)">
      <defs>
       <path id="DejaVuSans-52" d="M 2841 2188 
Q 3044 2119 3236 1894 
Q 3428 1669 3622 1275 
L 4263 0 
L 3584 0 
L 2988 1197 
Q 2756 1666 2539 1819 
Q 2322 1972 1947 1972 
L 1259 1972 
L 1259 0 
L 628 0 
L 628 4666 
L 2053 4666 
Q 2853 4666 3247 4331 
Q 3641 3997 3641 3322 
Q 3641 2881 3436 2590 
Q 3231 2300 2841 2188 
z
M 1259 4147 
L 1259 2491 
L 2053 2491 
Q 2509 2491 2742 2702 
Q 2975 2913 2975 3322 
Q 2975 3731 2742 3939 
Q 2509 4147 2053 4147 
L 1259 4147 
z
" transform="scale(0.015625)"/>
       <path id="DejaVuSans-61" d="M 2194 1759 
Q 1497 1759 1228 1600 
Q 959 1441 959 1056 
Q 959 750 1161 570 
Q 1363 391 1709 391 
Q 2188 391 2477 730 
Q 2766 1069 2766 1631 
L 2766 1759 
L 2194 1759 
z
M 3341 1997 
L 3341 0 
L 2766 0 
L 2766 531 
Q 2569 213 2275 61 
Q 1981 -91 1556 -91 
Q 1019 -91 701 211 
Q 384 513 384 1019 
Q 384 1609 779 1909 
Q 1175 2209 1959 2209 
L 2766 2209 
L 2766 2266 
Q 2766 2663 2505 2880 
Q 2244 3097 1772 3097 
Q 1472 3097 1187 3025 
Q 903 2953 641 2809 
L 641 3341 
Q 956 3463 1253 3523 
Q 1550 3584 1831 3584 
Q 2591 3584 2966 3190 
Q 3341 2797 3341 1997 
z
" transform="scale(0.015625)"/>
       <path id="DejaVuSans-6c" d="M 603 4863 
L 1178 4863 
L 1178 0 
L 603 0 
L 603 4863 
z
" transform="scale(0.015625)"/>
       <path id="DejaVuSans-20" transform="scale(0.015625)"/>
       <path id="DejaVuSans-54" d="M -19 4666 
L 3928 4666 
L 3928 4134 
L 2272 4134 
L 2272 0 
L 1638 0 
L 1638 4134 
L -19 4134 
L -19 4666 
z
" transform="scale(0.015625)"/>
       <path id="DejaVuSans-28" d="M 1984 4856 
Q 1566 4138 1362 3434 
Q 1159 2731 1159 2009 
Q 1159 1288 1364 580 
Q 1569 -128 1984 -844 
L 1484 -844 
Q 1016 -109 783 600 
Q 550 1309 550 2009 
Q 550 2706 781 3412 
Q 1013 4119 1484 4856 
L 1984 4856 
z
" transform="scale(0.015625)"/>
       <path id="DejaVuSans-29" d="M 513 4856 
L 1013 4856 
Q 1481 4119 1714 3412 
Q 1947 2706 1947 2009 
Q 1947 1309 1714 600 
Q 1481 -109 1013 -844 
L 513 -844 
Q 928 -128 1133 580 
Q 1338 1288 1338 2009 
Q 1338 2731 1133 3434 
Q 928 4138 513 4856 
z
" transform="scale(0.015625)"/>
      </defs>
      <use xlink:href="#DejaVuSans-52"/>
      <use xlink:href="#DejaVuSans-65" x="64.982422"/>
      <use xlink:href="#DejaVuSans-61" x="126.505859"/>
      <use xlink:href="#DejaVuSans-6c" x="187.785156"/>
      <use xlink:href="#DejaVuSans-20" x="215.568359"/>
      <use xlink:href="#DejaVuSans-54" x="247.355469"/>
      <use xlink:href="#DejaVuSans-69" x="305.314453"/>
      <use xlink:href="#DejaVuSans-6d" x="333.097656"/>
      <use xlink:href="#DejaVuSans-65" x="430.509766"/>
      <use xlink:href="#DejaVuSans-20" x="492.033203"/>
      <use xlink:href="#DejaVuSans-28" x="523.820312"/>
      <use xlink:href="#DejaVuSans-6d" x="562.833984"/>
      <use xlink:href="#DejaVuSans-73" x="660.246094"/>
      <use xlink:href="#DejaVuSans-29" x="712.345703"/>
     </g>
    </g>
   </g>
   <g id="line2d_14">
    <path d="M 73.832727 295.488 
L 90.919809 294.963945 
L 108.00689 294.061627 
L 125.093971 293.218804 
L 142.181053 291.798821 
L 159.268134 290.064587 
L 176.355215 288.092464 
L 193.442297 285.119788 
L 210.529378 283.160344 
L 227.616459 282.62739 
L 244.703541 277.312706 
L 261.790622 275.923978 
L 278.877703 269.669545 
L 295.964785 266.272314 
L 313.051866 260.816844 
L 330.138947 256.504742 
L 347.226029 253.617668 
L 364.31311 248.236783 
L 381.400191 242.45033 
L 398.487273 238.420461 
" clip-path="url(#p25cd64b7bb)" style="fill: none; stroke-dasharray: 5.55,2.4; stroke-dashoffset: 0; stroke: #000000; stroke-width: 1.5"/>
    <defs>
     <path id="md48ff8790a" d="M -0 3 
L 3 -3 
L -3 -3 
z
" style="stroke: #000000; stroke-linejoin: miter"/>
    </defs>
    <g clip-path="url(#p25cd64b7bb)">
     <use xlink:href="#md48ff8790a" x="73.832727" y="295.488" style="stroke: #000000; stroke-linejoin: miter"/>
     <use xlink:href="#md48ff8790a" x="90.919809" y="294.963945" style="stroke: #000000; stroke-linejoin: miter"/>
     <use xlink:href="#md48ff8790a" x="108.00689" y="294.061627" style="stroke: #000000; stroke-linejoin: miter"/>
     <use xlink:href="#md48ff8790a" x="125.093971" y="293.218804" style="stroke: #000000; stroke-linejoin: miter"/>
     <use xlink:href="#md48ff8790a" x="142.181053" y="291.798821" style="stroke: #000000; stroke-linejoin: miter"/>
     <use xlink:href="#md48ff8790a" x="159.268134" y="290.064587" style="stroke: #000000; stroke-linejoin: miter"/>
     <use xlink:href="#md48ff8790a" x="176.355215" y="288.092464" style="stroke: #000000; stroke-linejoin: miter"/>
     <use xlink:href="#md48ff8790a" x="193.442297" y="285.119788" style="stroke: #000000; stroke-linejoin: miter"/>
     <use xlink:href="#md48ff8790a" x="210.529378" y="283.160344" style="stroke: #000000; stroke-linejoin: miter"/>
     <use xlink:href="#md48ff8790a" x="227.616459" y="282.62739" style="stroke: #000000; stroke-linejoin: miter"/>
     <use xlink:href="#md48ff8790a" x="244.703541" y="277.312706" style="stroke: #000000; stroke-linejoin: miter"/>
     <use xlink:href="#md48ff8790a" x="261.790622" y="275.923978" style="stroke: #000000; stroke-linejoin: miter"/>
     <use xlink:href="#md48ff8790a" x="278.877703" y="269.669545" style="stroke: #000000; stroke-linejoin: miter"/>
     <use xlink:href="#md48ff8790a" x="295.964785" y="266.272314" style="stroke: #000000; stroke-linejoin: miter"/>
     <use xlink:href="#md48ff8790a" x="313.051866" y="260.816844" style="stroke: #000000; stroke-linejoin: miter"/>
     <use xlink:href="#md48ff8790a" x="330.138947" y="256.504742" style="stroke: #000000; stroke-linejoin: miter"/>
     <use xlink:href="#md48ff8790a" x="347.226029" y="253.617668" style="stroke: #000000; stroke-linejoin: miter"/>
     <use xlink:href="#md48ff8790a" x="364.31311" y="248.236783" style="stroke: #000000; stroke-linejoin: miter"/>
     <use xlink:href="#md48ff8790a" x="381.400191" y="242.45033" style="stroke: #000000; stroke-linejoin: miter"/>
     <use xlink:href="#md48ff8790a" x="398.487273" y="238.420461" style="stroke: #000000; stroke-linejoin: miter"/>
    </g>
   </g>
   <g id="line2d_15">
    <path d="M 73.832727 295.447891 
L 90.919809 294.736293 
L 108.00689 293.412965 
L 125.093971 292.232106 
L 142.181053 288.377558 
L 159.268134 285.281452 
L 176.355215 281.289567 
L 193.442297 276.822854 
L 210.529378 272.755958 
L 227.616459 266.382926 
L 244.703541 258.526541 
L 261.790622 250.604633 
L 278.877703 242.734019 
L 295.964785 237.47955 
L 313.051866 225.928538 
L 330.138947 216.209908 
L 347.226029 204.989621 
L 364.31311 193.305023 
L 381.400191 180.050994 
L 398.487273 166.595803 
" clip-path="url(#p25cd64b7bb)" style="fill: none; stroke: #0000ff; stroke-width: 1.5; stroke-linecap: square"/>
    <defs>
     <path id="m48a82789d7" d="M 0 1.5 
C 0.397805 1.5 0.77937 1.341951 1.06066 1.06066 
C 1.341951 0.77937 1.5 0.397805 1.5 0 
C 1.5 -0.397805 1.341951 -0.77937 1.06066 -1.06066 
C 0.77937 -1.341951 0.397805 -1.5 0 -1.5 
C -0.397805 -1.5 -0.77937 -1.341951 -1.06066 -1.06066 
C -1.341951 -0.77937 -1.5 -0.397805 -1.5 0 
C -1.5 0.397805 -1.341951 0.77937 -1.06066 1.06066 
C -0.77937 1.341951 -0.397805 1.5 0 1.5 
z
" style="stroke: #0000ff"/>
    </defs>
    <g clip-path="url(#p25cd64b7bb)">
     <use xlink:href="#m48a82789d7" x="73.832727" y="295.447891" style="fill: #0000ff; stroke: #0000ff"/>
     <use xlink:href="#m48a82789d7" x="90.919809" y="294.736293" style="fill: #0000ff; stroke: #0000ff"/>
     <use xlink:href="#m48a82789d7" x="108.00689" y="293.412965" style="fill: #0000ff; stroke: #0000ff"/>
     <use xlink:href="#m48a82789d7" x="125.093971" y="292.232106" style="fill: #0000ff; stroke: #0000ff"/>
     <use xlink:href="#m48a82789d7" x="142.181053" y="288.377558" style="fill: #0000ff; stroke: #0000ff"/>
     <use xlink:href="#m48a82789d7" x="159.268134" y="285.281452" style="fill: #0000ff; stroke: #0000ff"/>
     <use xlink:href="#m48a82789d7" x="176.355215" y="281.289567" style="fill: #0000ff; stroke: #0000ff"/>
     <use xlink:href="#m48a82789d7" x="193.442297" y="276.822854" style="fill: #0000ff; stroke: #0000ff"/>
     <use xlink:href="#m48a82789d7" x="210.529378" y="272.755958" style="fill: #0000ff; stroke: #0000ff"/>
     <use xlink:href="#m48a82789d7" x="227.616459" y="266.382926" style="fill: #0000ff; stroke: #0000ff"/>
     <use xlink:href="#m48a82789d7" x="244.703541" y="258.526541" style="fill: #0000ff; stroke: #0000ff"/>
     <use xlink:href="#m48a82789d7" x="261.790622" y="250.604633" style="fill: #0000ff; stroke: #0000ff"/>
     <use xlink:href="#m48a82789d7" x="278.877703" y="242.734019" style="fill: #0000ff; stroke: #0000ff"/>
     <use xlink:href="#m48a82789d7" x="295.964785" y="237.47955" style="fill: #0000ff; stroke: #0000ff"/>
     <use xlink:href="#m48a82789d7" x="313.051866" y="225.928538" style="fill: #0000ff; stroke: #0000ff"/>
     <use xlink:href="#m48a82789d7" x="330.138947" y="216.209908" style="fill: #0000ff; stroke: #0000ff"/>
     <use xlink:href="#m48a82789d7" x="347.226029" y="204.989621" style="fill: #0000ff; stroke: #0000ff"/>
     <use xlink:href="#m48a82789d7" x="364.31311" y="193.305023" style="fill: #0000ff; stroke: #0000ff"/>
     <use xlink:href="#m48a82789d7" x="381.400191" y="180.050994" style="fill: #0000ff; stroke: #0000ff"/>
     <use xlink:href="#m48a82789d7" x="398.487273" y="166.595803" style="fill: #0000ff; stroke: #0000ff"/>
    </g>
   </g>
   <g id="line2d_16">
    <path d="M 73.832727 294.651244 
L 90.919809 292.757971 
L 108.00689 289.639178 
L 125.093971 285.444447 
L 142.181053 279.832697 
L 159.268134 273.484051 
L 176.355215 265.544206 
L 193.442297 256.48054 
L 210.529378 246.328353 
L 227.616459 235.005213 
L 244.703541 222.30153 
L 261.790622 208.423093 
L 278.877703 193.25492 
L 295.964785 177.356345 
L 313.051866 159.707982 
L 330.138947 140.732702 
L 347.226029 120.473503 
L 364.31311 99.360134 
L 381.400191 77.297521 
L 398.487273 53.568 
" clip-path="url(#p25cd64b7bb)" style="fill: none; stroke: #808000; stroke-width: 1.5; stroke-linecap: square"/>
    <defs>
     <path id="me89962a2d2" d="M 0 3 
C 0.795609 3 1.55874 2.683901 2.12132 2.12132 
C 2.683901 1.55874 3 0.795609 3 0 
C 3 -0.795609 2.683901 -1.55874 2.12132 -2.12132 
C 1.55874 -2.683901 0.795609 -3 0 -3 
C -0.795609 -3 -1.55874 -2.683901 -2.12132 -2.12132 
C -2.683901 -1.55874 -3 -0.795609 -3 0 
C -3 0.795609 -2.683901 1.55874 -2.12132 2.12132 
C -1.55874 2.683901 -0.795609 3 0 3 
z
" style="stroke: #808000"/>
    </defs>
    <g clip-path="url(#p25cd64b7bb)">
     <use xlink:href="#me89962a2d2" x="73.832727" y="294.651244" style="fill: #808000; stroke: #808000"/>
     <use xlink:href="#me89962a2d2" x="90.919809" y="292.757971" style="fill: #808000; stroke: #808000"/>
     <use xlink:href="#me89962a2d2" x="108.00689" y="289.639178" style="fill: #808000; stroke: #808000"/>
     <use xlink:href="#me89962a2d2" x="125.093971" y="285.444447" style="fill: #808000; stroke: #808000"/>
     <use xlink:href="#me89962a2d2" x="142.181053" y="279.832697" style="fill: #808000; stroke: #808000"/>
     <use xlink:href="#me89962a2d2" x="159.268134" y="273.484051" style="fill: #808000; stroke: #808000"/>
     <use xlink:href="#me89962a2d2" x="176.355215" y="265.544206" style="fill: #808000; stroke: #808000"/>
     <use xlink:href="#me89962a2d2" x="193.442297" y="256.48054" style="fill: #808000; stroke: #808000"/>
     <use xlink:href="#me89962a2d2" x="210.529378" y="246.328353" style="fill: #808000; stroke: #808000"/>
     <use xlink:href="#me89962a2d2" x="227.616459" y="235.005213" style="fill: #808000; stroke: #808000"/>
     <use xlink:href="#me89962a2d2" x="244.703541" y="222.30153" style="fill: #808000; stroke: #808000"/>
     <use xlink:href="#me89962a2d2" x="261.790622" y="208.423093" style="fill: #808000; stroke: #808000"/>
     <use xlink:href="#me89962a2d2" x="278.877703" y="193.25492" style="fill: #808000; stroke: #808000"/>
     <use xlink:href="#me89962a2d2" x="295.964785" y="177.356345" style="fill: #808000; stroke: #808000"/>
     <use xlink:href="#me89962a2d2" x="313.051866" y="159.707982" style="fill: #808000; stroke: #808000"/>
     <use xlink:href="#me89962a2d2" x="330.138947" y="140.732702" style="fill: #808000; stroke: #808000"/>
     <use xlink:href="#me89962a2d2" x="347.226029" y="120.473503" style="fill: #808000; stroke: #808000"/>
     <use xlink:href="#me89962a2d2" x="364.31311" y="99.360134" style="fill: #808000; stroke: #808000"/>
     <use xlink:href="#me89962a2d2" x="381.400191" y="77.297521" style="fill: #808000; stroke: #808000"/>
     <use xlink:href="#me89962a2d2" x="398.487273" y="53.568" style="fill: #808000; stroke: #808000"/>
    </g>
   </g>
   <g id="line2d_17">
    <path d="M 73.832727 295.388669 
L 90.919809 294.821637 
L 108.00689 294.025504 
L 125.093971 293.410479 
L 142.181053 291.90522 
L 159.268134 289.834413 
L 176.355215 287.733345 
L 193.442297 284.879385 
L 210.529378 282.75082 
L 227.616459 279.234601 
L 244.703541 276.749034 
L 261.790622 272.447713 
L 278.877703 269.01822 
L 295.964785 265.768651 
L 313.051866 260.818638 
L 330.138947 256.290946 
L 347.226029 251.955039 
L 364.31311 245.359621 
L 381.400191 240.803814 
L 398.487273 236.239653 
" clip-path="url(#p25cd64b7bb)" style="fill: none; stroke: #008000; stroke-width: 1.5; stroke-linecap: square"/>
    <defs>
     <path id="mbdda7544cb" d="M 0 -3 
L -2.85317 -0.927051 
L -1.763356 2.427051 
L 1.763356 2.427051 
L 2.85317 -0.927051 
z
" style="stroke: #008000; stroke-linejoin: miter"/>
    </defs>
    <g clip-path="url(#p25cd64b7bb)">
     <use xlink:href="#mbdda7544cb" x="73.832727" y="295.388669" style="fill: #008000; stroke: #008000; stroke-linejoin: miter"/>
     <use xlink:href="#mbdda7544cb" x="90.919809" y="294.821637" style="fill: #008000; stroke: #008000; stroke-linejoin: miter"/>
     <use xlink:href="#mbdda7544cb" x="108.00689" y="294.025504" style="fill: #008000; stroke: #008000; stroke-linejoin: miter"/>
     <use xlink:href="#mbdda7544cb" x="125.093971" y="293.410479" style="fill: #008000; stroke: #008000; stroke-linejoin: miter"/>
     <use xlink:href="#mbdda7544cb" x="142.181053" y="291.90522" style="fill: #008000; stroke: #008000; stroke-linejoin: miter"/>
     <use xlink:href="#mbdda7544cb" x="159.268134" y="289.834413" style="fill: #008000; stroke: #008000; stroke-linejoin: miter"/>
     <use xlink:href="#mbdda7544cb" x="176.355215" y="287.733345" style="fill: #008000; stroke: #008000; stroke-linejoin: miter"/>
     <use xlink:href="#mbdda7544cb" x="193.442297" y="284.879385" style="fill: #008000; stroke: #008000; stroke-linejoin: miter"/>
     <use xlink:href="#mbdda7544cb" x="210.529378" y="282.75082" style="fill: #008000; stroke: #008000; stroke-linejoin: miter"/>
     <use xlink:href="#mbdda7544cb" x="227.616459" y="279.234601" style="fill: #008000; stroke: #008000; stroke-linejoin: miter"/>
     <use xlink:href="#mbdda7544cb" x="244.703541" y="276.749034" style="fill: #008000; stroke: #008000; stroke-linejoin: miter"/>
     <use xlink:href="#mbdda7544cb" x="261.790622" y="272.447713" style="fill: #008000; stroke: #008000; stroke-linejoin: miter"/>
     <use xlink:href="#mbdda7544cb" x="278.877703" y="269.01822" style="fill: #008000; stroke: #008000; stroke-linejoin: miter"/>
     <use xlink:href="#mbdda7544cb" x="295.964785" y="265.768651" style="fill: #008000; stroke: #008000; stroke-linejoin: miter"/>
     <use xlink:href="#mbdda7544cb" x="313.051866" y="260.818638" style="fill: #008000; stroke: #008000; stroke-linejoin: miter"/>
     <use xlink:href="#mbdda7544cb" x="330.138947" y="256.290946" style="fill: #008000; stroke: #008000; stroke-linejoin: miter"/>
     <use xlink:href="#mbdda7544cb" x="347.226029" y="251.955039" style="fill: #008000; stroke: #008000; stroke-linejoin: miter"/>
     <use xlink:href="#mbdda7544cb" x="364.31311" y="245.359621" style="fill: #008000; stroke: #008000; stroke-linejoin: miter"/>
     <use xlink:href="#mbdda7544cb" x="381.400191" y="240.803814" style="fill: #008000; stroke: #008000; stroke-linejoin: miter"/>
     <use xlink:href="#mbdda7544cb" x="398.487273" y="236.239653" style="fill: #008000; stroke: #008000; stroke-linejoin: miter"/>
    </g>
   </g>
   <g id="line2d_18">
    <path d="M 73.832727 295.471858 
L 90.919809 294.978182 
L 108.00689 294.126585 
L 125.093971 293.501427 
L 142.181053 291.909485 
L 159.268134 290.128265 
L 176.355215 287.979035 
L 193.442297 286.667981 
L 210.529378 283.898718 
L 227.616459 280.322401 
L 244.703541 276.74054 
L 261.790622 274.448774 
L 278.877703 270.581761 
L 295.964785 265.930094 
L 313.051866 261.007828 
L 330.138947 256.382555 
L 347.226029 251.9952 
L 364.31311 245.542442 
L 381.400191 239.776743 
L 398.487273 235.015075 
" clip-path="url(#p25cd64b7bb)" style="fill: none; stroke: #ff0000; stroke-width: 1.5; stroke-linecap: square"/>
    <defs>
     <path id="m1fc4ab58e2" d="M 0 -3 
L -0.673542 -0.927051 
L -2.85317 -0.927051 
L -1.089814 0.354102 
L -1.763356 2.427051 
L -0 1.145898 
L 1.763356 2.427051 
L 1.089814 0.354102 
L 2.85317 -0.927051 
L 0.673542 -0.927051 
z
" style="stroke: #ff0000; stroke-linejoin: bevel"/>
    </defs>
    <g clip-path="url(#p25cd64b7bb)">
     <use xlink:href="#m1fc4ab58e2" x="73.832727" y="295.471858" style="fill: #ff0000; stroke: #ff0000; stroke-linejoin: bevel"/>
     <use xlink:href="#m1fc4ab58e2" x="90.919809" y="294.978182" style="fill: #ff0000; stroke: #ff0000; stroke-linejoin: bevel"/>
     <use xlink:href="#m1fc4ab58e2" x="108.00689" y="294.126585" style="fill: #ff0000; stroke: #ff0000; stroke-linejoin: bevel"/>
     <use xlink:href="#m1fc4ab58e2" x="125.093971" y="293.501427" style="fill: #ff0000; stroke: #ff0000; stroke-linejoin: bevel"/>
     <use xlink:href="#m1fc4ab58e2" x="142.181053" y="291.909485" style="fill: #ff0000; stroke: #ff0000; stroke-linejoin: bevel"/>
     <use xlink:href="#m1fc4ab58e2" x="159.268134" y="290.128265" style="fill: #ff0000; stroke: #ff0000; stroke-linejoin: bevel"/>
     <use xlink:href="#m1fc4ab58e2" x="176.355215" y="287.979035" style="fill: #ff0000; stroke: #ff0000; stroke-linejoin: bevel"/>
     <use xlink:href="#m1fc4ab58e2" x="193.442297" y="286.667981" style="fill: #ff0000; stroke: #ff0000; stroke-linejoin: bevel"/>
     <use xlink:href="#m1fc4ab58e2" x="210.529378" y="283.898718" style="fill: #ff0000; stroke: #ff0000; stroke-linejoin: bevel"/>
     <use xlink:href="#m1fc4ab58e2" x="227.616459" y="280.322401" style="fill: #ff0000; stroke: #ff0000; stroke-linejoin: bevel"/>
     <use xlink:href="#m1fc4ab58e2" x="244.703541" y="276.74054" style="fill: #ff0000; stroke: #ff0000; stroke-linejoin: bevel"/>
     <use xlink:href="#m1fc4ab58e2" x="261.790622" y="274.448774" style="fill: #ff0000; stroke: #ff0000; stroke-linejoin: bevel"/>
     <use xlink:href="#m1fc4ab58e2" x="278.877703" y="270.581761" style="fill: #ff0000; stroke: #ff0000; stroke-linejoin: bevel"/>
     <use xlink:href="#m1fc4ab58e2" x="295.964785" y="265.930094" style="fill: #ff0000; stroke: #ff0000; stroke-linejoin: bevel"/>
     <use xlink:href="#m1fc4ab58e2" x="313.051866" y="261.007828" style="fill: #ff0000; stroke: #ff0000; stroke-linejoin: bevel"/>
     <use xlink:href="#m1fc4ab58e2" x="330.138947" y="256.382555" style="fill: #ff0000; stroke: #ff0000; stroke-linejoin: bevel"/>
     <use xlink:href="#m1fc4ab58e2" x="347.226029" y="251.9952" style="fill: #ff0000; stroke: #ff0000; stroke-linejoin: bevel"/>
     <use xlink:href="#m1fc4ab58e2" x="364.31311" y="245.542442" style="fill: #ff0000; stroke: #ff0000; stroke-linejoin: bevel"/>
     <use xlink:href="#m1fc4ab58e2" x="381.400191" y="239.776743" style="fill: #ff0000; stroke: #ff0000; stroke-linejoin: bevel"/>
     <use xlink:href="#m1fc4ab58e2" x="398.487273" y="235.015075" style="fill: #ff0000; stroke: #ff0000; stroke-linejoin: bevel"/>
    </g>
   </g>
   <g id="patch_3">
    <path d="M 57.6 307.584 
L 57.6 41.472 
" style="fill: none; stroke: #000000; stroke-width: 0.8; stroke-linejoin: miter; stroke-linecap: square"/>
   </g>
   <g id="patch_4">
    <path d="M 414.72 307.584 
L 414.72 41.472 
" style="fill: none; stroke: #000000; stroke-width: 0.8; stroke-linejoin: miter; stroke-linecap: square"/>
   </g>
   <g id="patch_5">
    <path d="M 57.6 307.584 
L 414.72 307.584 
" style="fill: none; stroke: #000000; stroke-width: 0.8; stroke-linejoin: miter; stroke-linecap: square"/>
   </g>
   <g id="patch_6">
    <path d="M 57.6 41.472 
L 414.72 41.472 
" style="fill: none; stroke: #000000; stroke-width: 0.8; stroke-linejoin: miter; stroke-linecap: square"/>
   </g>
   <g id="text_16">
    <!-- fig14 -->
    <g transform="translate(220.936875 35.472) scale(0.12 -0.12)">
     <defs>
      <path id="DejaVuSans-66" d="M 2375 4863 
L 2375 4384 
L 1825 4384 
Q 1516 4384 1395 4259 
Q 1275 4134 1275 3809 
L 1275 3500 
L 2222 3500 
L 2222 3053 
L 1275 3053 
L 1275 0 
L 697 0 
L 697 3053 
L 147 3053 
L 147 3500 
L 697 3500 
L 697 3744 
Q 697 4328 969 4595 
Q 1241 4863 1831 4863 
L 2375 4863 
z
" transform="scale(0.015625)"/>
      <path id="DejaVuSans-67" d="M 2906 1791 
Q 2906 2416 2648 2759 
Q 2391 3103 1925 3103 
Q 1463 3103 1205 2759 
Q 947 2416 947 1791 
Q 947 1169 1205 825 
Q 1463 481 1925 481 
Q 2391 481 2648 825 
Q 2906 1169 2906 1791 
z
M 3481 434 
Q 3481 -459 3084 -895 
Q 2688 -1331 1869 -1331 
Q 1566 -1331 1297 -1286 
Q 1028 -1241 775 -1147 
L 775 -588 
Q 1028 -725 1275 -790 
Q 1522 -856 1778 -856 
Q 2344 -856 2625 -561 
Q 2906 -266 2906 331 
L 2906 616 
Q 2728 306 2450 153 
Q 2172 0 1784 0 
Q 1141 0 747 490 
Q 353 981 353 1791 
Q 353 2603 747 3093 
Q 1141 3584 1784 3584 
Q 2172 3584 2450 3431 
Q 2728 3278 2906 2969 
L 2906 3500 
L 3481 3500 
L 3481 434 
z
" transform="scale(0.015625)"/>
     </defs>
     <use xlink:href="#DejaVuSans-66"/>
     <use xlink:href="#DejaVuSans-69" x="35.205078"/>
     <use xlink:href="#DejaVuSans-67" x="62.988281"/>
     <use xlink:href="#DejaVuSans-31" x="126.464844"/>
     <use xlink:href="#DejaVuSans-34" x="190.087891"/>
    </g>
   </g>
   <g id="legend_1">
    <g id="patch_7">
     <path d="M 64.6 124.25325 
L 169.803125 124.25325 
Q 171.803125 124.25325 171.803125 122.25325 
L 171.803125 48.472 
Q 171.803125 46.472 169.803125 46.472 
L 64.6 46.472 
Q 62.6 46.472 62.6 48.472 
L 62.6 122.25325 
Q 62.6 124.25325 64.6 124.25325 
z
" style="fill: #ffffff; opacity: 0.8; stroke: #cccccc; stroke-linejoin: miter"/>
    </g>
    <g id="line2d_19">
     <path d="M 66.6 54.570438 
L 76.6 54.570438 
L 86.6 54.570438 
" style="fill: none; stroke: #000000; stroke-width: 1.5; stroke-linecap: square"/>
    </g>
    <g id="text_17">
     <!-- mkl_real_time -->
     <g transform="translate(94.6 58.070438) scale(0.1 -0.1)">
      <defs>
       <path id="DejaVuSans-6b" d="M 581 4863 
L 1159 4863 
L 1159 1991 
L 2875 3500 
L 3609 3500 
L 1753 1863 
L 3688 0 
L 2938 0 
L 1159 1709 
L 1159 0 
L 581 0 
L 581 4863 
z
" transform="scale(0.015625)"/>
       <path id="DejaVuSans-5f" d="M 3263 -1063 
L 3263 -1509 
L -63 -1509 
L -63 -1063 
L 3263 -1063 
z
" transform="scale(0.015625)"/>
       <path id="DejaVuSans-72" d="M 2631 2963 
Q 2534 3019 2420 3045 
Q 2306 3072 2169 3072 
Q 1681 3072 1420 2755 
Q 1159 2438 1159 1844 
L 1159 0 
L 581 0 
L 581 3500 
L 1159 3500 
L 1159 2956 
Q 1341 3275 1631 3429 
Q 1922 3584 2338 3584 
Q 2397 3584 2469 3576 
Q 2541 3569 2628 3553 
L 2631 2963 
z
" transform="scale(0.015625)"/>
       <path id="DejaVuSans-74" d="M 1172 4494 
L 1172 3500 
L 2356 3500 
L 2356 3053 
L 1172 3053 
L 1172 1153 
Q 1172 725 1289 603 
Q 1406 481 1766 481 
L 2356 481 
L 2356 0 
L 1766 0 
Q 1100 0 847 248 
Q 594 497 594 1153 
L 594 3053 
L 172 3053 
L 172 3500 
L 594 3500 
L 594 4494 
L 1172 4494 
z
" transform="scale(0.015625)"/>
      </defs>
      <use xlink:href="#DejaVuSans-6d"/>
      <use xlink:href="#DejaVuSans-6b" x="97.412109"/>
      <use xlink:href="#DejaVuSans-6c" x="155.322266"/>
      <use xlink:href="#DejaVuSans-5f" x="183.105469"/>
      <use xlink:href="#DejaVuSans-72" x="233.105469"/>
      <use xlink:href="#DejaVuSans-65" x="271.96875"/>
      <use xlink:href="#DejaVuSans-61" x="333.492188"/>
      <use xlink:href="#DejaVuSans-6c" x="394.771484"/>
      <use xlink:href="#DejaVuSans-5f" x="422.554688"/>
      <use xlink:href="#DejaVuSans-74" x="472.554688"/>
      <use xlink:href="#DejaVuSans-69" x="511.763672"/>
      <use xlink:href="#DejaVuSans-6d" x="539.546875"/>
      <use xlink:href="#DejaVuSans-65" x="636.958984"/>
     </g>
    </g>
    <g id="line2d_20">
     <path d="M 66.6 69.526688 
L 76.6 69.526688 
L 86.6 69.526688 
" style="fill: none; stroke: #0000ff; stroke-width: 1.5; stroke-linecap: square"/>
    </g>
    <g id="text_18">
     <!-- taco_real_time -->
     <g transform="translate(94.6 73.026688) scale(0.1 -0.1)">
      <defs>
       <path id="DejaVuSans-63" d="M 3122 3366 
L 3122 2828 
Q 2878 2963 2633 3030 
Q 2388 3097 2138 3097 
Q 1578 3097 1268 2742 
Q 959 2388 959 1747 
Q 959 1106 1268 751 
Q 1578 397 2138 397 
Q 2388 397 2633 464 
Q 2878 531 3122 666 
L 3122 134 
Q 2881 22 2623 -34 
Q 2366 -91 2075 -91 
Q 1284 -91 818 406 
Q 353 903 353 1747 
Q 353 2603 823 3093 
Q 1294 3584 2113 3584 
Q 2378 3584 2631 3529 
Q 2884 3475 3122 3366 
z
" transform="scale(0.015625)"/>
      </defs>
      <use xlink:href="#DejaVuSans-74"/>
      <use xlink:href="#DejaVuSans-61" x="39.208984"/>
      <use xlink:href="#DejaVuSans-63" x="100.488281"/>
      <use xlink:href="#DejaVuSans-6f" x="155.46875"/>
      <use xlink:href="#DejaVuSans-5f" x="216.650391"/>
      <use xlink:href="#DejaVuSans-72" x="266.650391"/>
      <use xlink:href="#DejaVuSans-65" x="305.513672"/>
      <use xlink:href="#DejaVuSans-61" x="367.037109"/>
      <use xlink:href="#DejaVuSans-6c" x="428.316406"/>
      <use xlink:href="#DejaVuSans-5f" x="456.099609"/>
      <use xlink:href="#DejaVuSans-74" x="506.099609"/>
      <use xlink:href="#DejaVuSans-69" x="545.308594"/>
      <use xlink:href="#DejaVuSans-6d" x="573.091797"/>
      <use xlink:href="#DejaVuSans-65" x="670.503906"/>
     </g>
    </g>
    <g id="line2d_21">
     <path d="M 66.6 84.482938 
L 76.6 84.482938 
L 86.6 84.482938 
" style="fill: none; stroke: #808000; stroke-width: 1.5; stroke-linecap: square"/>
    </g>
    <g id="text_19">
     <!-- tblis_real_time -->
     <g transform="translate(94.6 87.982938) scale(0.1 -0.1)">
      <defs>
       <path id="DejaVuSans-62" d="M 3116 1747 
Q 3116 2381 2855 2742 
Q 2594 3103 2138 3103 
Q 1681 3103 1420 2742 
Q 1159 2381 1159 1747 
Q 1159 1113 1420 752 
Q 1681 391 2138 391 
Q 2594 391 2855 752 
Q 3116 1113 3116 1747 
z
M 1159 2969 
Q 1341 3281 1617 3432 
Q 1894 3584 2278 3584 
Q 2916 3584 3314 3078 
Q 3713 2572 3713 1747 
Q 3713 922 3314 415 
Q 2916 -91 2278 -91 
Q 1894 -91 1617 61 
Q 1341 213 1159 525 
L 1159 0 
L 581 0 
L 581 4863 
L 1159 4863 
L 1159 2969 
z
" transform="scale(0.015625)"/>
      </defs>
      <use xlink:href="#DejaVuSans-74"/>
      <use xlink:href="#DejaVuSans-62" x="39.208984"/>
      <use xlink:href="#DejaVuSans-6c" x="102.685547"/>
      <use xlink:href="#DejaVuSans-69" x="130.46875"/>
      <use xlink:href="#DejaVuSans-73" x="158.251953"/>
      <use xlink:href="#DejaVuSans-5f" x="210.351562"/>
      <use xlink:href="#DejaVuSans-72" x="260.351562"/>
      <use xlink:href="#DejaVuSans-65" x="299.214844"/>
      <use xlink:href="#DejaVuSans-61" x="360.738281"/>
      <use xlink:href="#DejaVuSans-6c" x="422.017578"/>
      <use xlink:href="#DejaVuSans-5f" x="449.800781"/>
      <use xlink:href="#DejaVuSans-74" x="499.800781"/>
      <use xlink:href="#DejaVuSans-69" x="539.009766"/>
      <use xlink:href="#DejaVuSans-6d" x="566.792969"/>
      <use xlink:href="#DejaVuSans-65" x="664.205078"/>
     </g>
    </g>
    <g id="line2d_22">
     <path d="M 66.6 99.439188 
L 76.6 99.439188 
L 86.6 99.439188 
" style="fill: none; stroke: #008000; stroke-width: 1.5; stroke-linecap: square"/>
    </g>
    <g id="text_20">
     <!-- gsl_real_time -->
     <g transform="translate(94.6 102.939188) scale(0.1 -0.1)">
      <use xlink:href="#DejaVuSans-67"/>
      <use xlink:href="#DejaVuSans-73" x="63.476562"/>
      <use xlink:href="#DejaVuSans-6c" x="115.576172"/>
      <use xlink:href="#DejaVuSans-5f" x="143.359375"/>
      <use xlink:href="#DejaVuSans-72" x="193.359375"/>
      <use xlink:href="#DejaVuSans-65" x="232.222656"/>
      <use xlink:href="#DejaVuSans-61" x="293.746094"/>
      <use xlink:href="#DejaVuSans-6c" x="355.025391"/>
      <use xlink:href="#DejaVuSans-5f" x="382.808594"/>
      <use xlink:href="#DejaVuSans-74" x="432.808594"/>
      <use xlink:href="#DejaVuSans-69" x="472.017578"/>
      <use xlink:href="#DejaVuSans-6d" x="499.800781"/>
      <use xlink:href="#DejaVuSans-65" x="597.212891"/>
     </g>
    </g>
    <g id="line2d_23">
     <path d="M 66.6 114.395438 
L 76.6 114.395438 
L 86.6 114.395438 
" style="fill: none; stroke: #ff0000; stroke-width: 1.5; stroke-linecap: square"/>
    </g>
    <g id="text_21">
     <!-- blas_real_time -->
     <g transform="translate(94.6 117.895438) scale(0.1 -0.1)">
      <use xlink:href="#DejaVuSans-62"/>
      <use xlink:href="#DejaVuSans-6c" x="63.476562"/>
      <use xlink:href="#DejaVuSans-61" x="91.259766"/>
      <use xlink:href="#DejaVuSans-73" x="152.539062"/>
      <use xlink:href="#DejaVuSans-5f" x="204.638672"/>
      <use xlink:href="#DejaVuSans-72" x="254.638672"/>
      <use xlink:href="#DejaVuSans-65" x="293.501953"/>
      <use xlink:href="#DejaVuSans-61" x="355.025391"/>
      <use xlink:href="#DejaVuSans-6c" x="416.304688"/>
      <use xlink:href="#DejaVuSans-5f" x="444.087891"/>
      <use xlink:href="#DejaVuSans-74" x="494.087891"/>
      <use xlink:href="#DejaVuSans-69" x="533.296875"/>
      <use xlink:href="#DejaVuSans-6d" x="561.080078"/>
      <use xlink:href="#DejaVuSans-65" x="658.492188"/>
     </g>
    </g>
   </g>
  </g>
 </g>
 <defs>
  <clipPath id="p25cd64b7bb">
   <rect x="57.6" y="41.472" width="357.12" height="266.112"/>
  </clipPath>
 </defs>
</svg>
